<?xml version="1.0" encoding="UTF-8"?>
<svg id="Layer_2" data-name="Layer 2" xmlns="http://www.w3.org/2000/svg" viewBox="0 0 482.86 346.69">
  <defs>
    <style>
      .cls-1 {
        fill: #fff;
      }

      .cls-2 {
        fill: #678a3b;
      }

      .cls-3 {
        fill: #7eaf48;
      }

      .cls-4 {
        fill: #7d9a57;
      }

      .cls-5 {
        fill: #4f4239;
      }

      .cls-6 {
        fill: #b0d465;
      }
    </style>
  </defs>
  <g id="Layer_1-2" data-name="Layer 1">
    <path class="cls-1" d="m250.2,242.24c-7.56.88-15.15,1.52-22.76,1.02-8.91-.58-17.75-1.7-26.39-4.18-8.93-2.57-17.49-6.01-25.63-10.46-6.31-3.45-12.22-7.52-17.81-12.07-8.31-6.76-15.6-14.45-21.87-23.11-8.12-11.21-14.1-23.48-18.06-36.75-3.72-12.49-5.21-25.25-4.93-38.24.33-15.12,3.35-29.7,9.13-43.7,6.24-15.12,15.14-28.49,26.74-39.98,12.61-12.49,27.28-21.88,44.04-27.86,8.38-2.99,16.98-5.07,25.85-6.07,8.5-.96,17.01-1.11,25.52-.4,13.18,1.09,25.8,4.42,37.88,9.8,11.35,5.05,21.68,11.71,30.92,20.01,15.91,14.3,27.49,31.49,34.35,51.8,3.2,9.47,5.22,19.19,6.06,29.15.78,9.35.58,18.68-.81,27.96-2.1,14.04-6.31,27.42-12.94,40.03-4.55,8.65-10.21,16.52-16.61,23.85-10.88,12.47-24,22.02-38.9,29.16-8.23,3.94-16.91,6.58-25.8,8.54-2.59.57-5.21,1-7.82,1.49l-.08-.06-.08.07Zm15.4-57.62c3.7,1.45,7.55,2.14,11.5,2.31.08,0,.17.01.25.02,3.16-.09,6.31-.18,9.47-.27.08,0,.15-.02.23-.02.81-.17,1.62-.36,2.43-.52,8.51-1.63,16.08-5.23,22.58-10.95,14.15-12.46,19.94-28.17,17.03-46.69-2.24-14.26-9.89-25.43-21.83-33.6-3.48-2.38-7.3-4.08-11.32-5.34.01-.47-.05-.96.05-1.42.51-2.3,1.29-4.57,1.54-6.9.31-2.84.2-5.72.27-8.58.2-8.15-2.09-15.7-5.91-22.75-4.31-7.95-10.34-14.44-18.2-19.04-8.83-5.15-18.36-7.54-28.62-6.83-9.79.68-18.59,3.95-26.46,9.81-7,5.21-12.09,11.9-15.67,19.8-.72,1.58-1.38,3.19-2.07,4.78-.24-.04-.49-.07-.73-.13-5.41-1.42-10.84-2.24-16.49-1.93-6.45.35-12.59,1.85-18.37,4.58-7.19,3.39-13.34,8.17-18.18,14.59-4.78,6.34-8.15,13.28-9.6,21.1-1.62,8.77-1.12,17.43,1.77,25.9,3.47,10.17,9.5,18.46,18.27,24.73,4.05,2.9,8.48,5.05,13.18,6.67-.31,1.35-.62,2.7-.93,4.06-.09.05-.1.12-.04.2-.05.19-.09.38-.14.57-.03.16-.06.31-.09.47-1.83,7.9-1.42,15.79.76,23.51,3.65,12.9,11.33,22.91,22.87,29.75,12.08,7.16,25.01,8.72,38.51,4.86,9.17-2.62,16.88-7.64,23.23-14.76,4.51-5.05,7.93-10.73,10.05-17.17.22-.27.44-.54.66-.81Z"/>
    <path class="cls-5" d="m220.8,344.9v-75.08c.53-.05.97-.13,1.4-.13,9.48,0,18.96-.15,28.43.05,4.21.09,8.38.89,12.4,2.35,3.84,1.4,7.56,2.98,10.8,5.54,4.52,3.57,8.19,7.81,10.63,13.1,1.69,3.66,2.94,7.45,3.24,11.41.33,4.36.47,8.77-.47,13.13-1.3,6.04-3.91,11.45-7.82,16.2-2.28,2.77-5.09,5-8.07,6.98-4.26,2.83-8.92,4.79-13.99,5.61-2.77.45-5.59.82-8.39.85-8.98.11-17.96.04-26.94.04-.37,0-.73-.04-1.23-.06Zm13.41-12.46c.43.02.84.06,1.25.06,3.95,0,7.9-.02,11.84,0,5.06.02,9.87-.84,14.31-3.46,4.39-2.59,7.65-6.14,9.81-10.76,1.86-3.97,2.36-8.13,2.24-12.47-.12-4.13-1.28-7.92-3.18-11.5-1.85-3.49-4.66-6.09-7.94-8.24-3.97-2.59-8.37-3.76-13.04-3.92-4.52-.15-9.04-.18-13.57-.25-.53,0-1.06,0-1.52,0-.5,1.2-.68,48.81-.19,50.55Z"/>
    <path class="cls-5" d="m402.6,320.43c2.09,2.58,3.93,4.81,5.72,7.07,2.29,2.89,5.1,4.83,8.91,5.02,1.19.06,2.38.22,3.81.36.07.41.22.91.23,1.41.02,2.97,0,5.95.02,8.92,0,.8-.15,1.38-1.06,1.53-5.37.84-10.72,1-15.7-1.5-2.85-1.43-5.01-3.82-6.76-6.48-2.12-3.22-4.1-6.52-6.17-9.77-.38-.59-.82-1.15-1.32-1.65-1.25-1.27-2.59-2.19-4.57-2.1-3.19.14-6.39.04-9.75.04v21.58h-13.16v-75.04c.5-.05.94-.13,1.38-.13,8.11,0,16.22-.16,24.32.05,4.72.12,9.35,1.07,13.7,3.18,4.96,2.41,8.83,5.89,11.18,10.88,1.54,3.28,2.32,6.79,2.48,10.45.2,4.75-.41,9.35-2.28,13.74-2.11,4.95-5.33,8.94-10.08,11.63-.4.23-.69.64-.88.82Zm-26.58-38.52v29.44c.27.09.43.18.58.18,4.47-.16,8.98-.01,13.4-.59,4.6-.6,8.4-2.92,10.24-7.5,1.69-4.18,1.8-8.46.34-12.75-1.23-3.63-3.76-5.95-7.29-7.3-2.52-.96-5.15-1.18-7.81-1.26-1.99-.06-3.98-.16-5.96-.22-1.15-.03-2.3,0-3.51,0Z"/>
    <path class="cls-5" d="m192.84,317.42v-47.15h12.99v75.32c-1.79.26-3.38.26-4.75-1.14-7.87-7.99-15.78-15.95-23.66-23.93-3.15-3.19-6.27-6.41-9.41-9.62-3.5-3.58-7-7.17-10.51-10.75-.32-.33-.72-.57-1.35-1.07v45.76h-13.16v-75.16c.75,0,1.43-.04,2.11.01.66.05,1.31.18,2.12.12,1.63,1.75,3.26,3.52,4.9,5.26,1.65,1.75,3.3,3.5,4.98,5.23,3.53,3.63,7.29,7.07,10.58,10.91,5.17,6.04,11.01,11.41,16.46,17.16,2.54,2.67,4.89,5.52,7.34,8.28.29.33.65.6.97.9.13-.04.25-.09.38-.13Z"/>
    <path class="cls-5" d="m313.1,282.13v20.87h31.69v11.73h-31.67v17.75h34.99v12.34h-48.19v-74.86c1.43-.47,46.71-.34,48.21.13v11.93c-3.89.25-7.77.08-11.64.11-3.87.03-7.73,0-11.6,0h-11.78Z"/>
    <path class="cls-5" d="m91.99,269.21h3.33c11.5,25.03,23.04,50.14,34.66,75.41h-14.43c-.69-1.62-1.37-3.26-2.09-4.89-1.31-2.96-2.6-5.93-4.03-8.83-.23-.47-1.12-.83-1.73-.87-1.86-.11-3.74-.04-5.61-.04-7.4,0-14.8,0-22.21,0-.7,0-1.41,0-2.27,0-2.16,4.91-4.32,9.81-6.46,14.66h-13.88c.21-.49.35-.86.52-1.21,3.11-6.88,6.2-13.77,9.35-20.63,2.55-5.54,5.19-11.04,7.76-16.58,2.36-5.08,4.69-10.17,7.02-15.27,1.96-4.3,3.9-8.61,5.85-12.92,1.16-2.57,2.32-5.14,3.51-7.7.18-.4.47-.76.71-1.13Zm1.66,25.09c-.33.22-.63.3-.71.48-3.48,7.83-6.95,15.67-10.4,23.51-.1.23-.01.55-.01.87.33.05.57.12.81.12,6.64,0,13.29,0,19.93-.01.36,0,.73-.16,1.16-.27-3.64-8.32-7.19-16.47-10.79-24.7Z"/>
    <path class="cls-5" d="m431.33,339.24c1.6-4.22,3.11-8.18,4.68-12.32.46.21.91.37,1.29.61,4.18,2.64,8.62,4.72,13.5,5.56,4.22.73,8.44.94,12.56-.83,4.36-1.88,7.04-7.46,4.13-11.87-1.16-1.76-2.76-3.13-4.66-4.03-3.52-1.66-7.07-3.27-10.66-4.78-4.03-1.69-8.03-3.42-11.4-6.27-4.44-3.75-7.19-8.31-7.28-14.36-.13-8.98,4.3-15.2,11.68-19.56,3.5-2.06,7.5-2.81,11.58-2.98,7.38-.3,14.3,1.48,20.93,4.59.41.19.79.43,1.18.64-1.42,3.92-2.81,7.75-4.27,11.8-.57-.18-1.17-.27-1.68-.54-5.36-2.86-10.98-4.92-17.13-4.22-5.06.57-8.3,3.33-8.94,8.81-.32,2.73,1.24,4.9,3.39,6.57,2.96,2.3,6.45,3.55,9.84,5.01,4.57,1.96,9.19,3.82,13.33,6.67,3.77,2.6,6.27,6.01,8.26,10.16,1.81,3.78,1.07,7.46.94,11.2-.03.94-.88,1.83-1.23,2.78-2.04,5.42-5.79,9.32-10.98,11.65-3.37,1.51-6.88,2.73-10.7,2.99-3.42.23-6.84.26-10.14-.42-3.64-.74-7.19-1.99-10.68-3.28-2.51-.93-4.86-2.3-7.53-3.59Z"/>
    <path class="cls-5" d="m0,344.84v-74.71c1.49-.49,11.51-.67,13.33-.19v62.56h35.01v12.35H0Z"/>
    <polygon class="cls-4" points="250.2 242.24 250.28 242.17 250.36 242.23 250.29 242.28 250.2 242.24"/>
    <path class="cls-3" d="m200.87,58.45c.69-1.6,1.35-3.2,2.07-4.78,3.58-7.9,8.67-14.59,15.67-19.8,7.87-5.86,16.68-9.14,26.46-9.81,10.26-.71,19.79,1.68,28.62,6.83,7.87,4.59,13.89,11.08,18.2,19.04,3.82,7.05,6.12,14.6,5.91,22.75-.07,2.86.04,5.74-.27,8.58-.26,2.33-1.03,4.6-1.54,6.9-.1.45-.04.94-.05,1.42-1.14.29-.68,1.36-1.02,2.05-1.51,3.09-2.87,6.28-4.64,9.22-2.45,4.09-5.6,7.65-9.14,10.9-3.5,3.2-7.41,5.67-11.67,7.69-5.06,2.41-10.36,3.93-15.95,4.43-4.47.4-8.93.39-13.37-.4-2.23-.4-4.48-.75-6.71-1.12.13-1.21.21-2.42.41-3.62.49-2.93,1.32-5.84,1.48-8.79.18-3.33-.1-6.7-.43-10.03-.55-5.71-2.24-11.14-4.89-16.2-2.9-5.53-6.51-10.54-11.32-14.68-4.77-4.11-10.01-7.32-15.92-9.49-.68-.25-1.29-.72-1.93-1.08Z"/>
    <path class="cls-6" d="m200.87,58.45c.64.37,1.24.83,1.93,1.08,5.9,2.17,11.15,5.38,15.92,9.49,4.8,4.14,8.42,9.15,11.32,14.68,2.65,5.06,4.34,10.49,4.89,16.2.32,3.33.6,6.7.43,10.03-.16,2.95-.99,5.85-1.48,8.79-.2,1.2-.28,2.41-.41,3.62-.09.24-.18.48-.27.71-.25-.03-.5-.07-.75-.1.07-.48.13-.96.21-1.49-3.52-1.37-7.17-1.92-10.85-2.07-3.18-.13-6.38.07-9.57.21-4.24.18-8.25,1.45-12.13,3-7.23,2.88-13.52,7.19-18.74,12.99-3.47,3.85-6.33,8.08-8.39,12.84-.79,1.82-1.5,3.68-2.24,5.52-4.7-1.61-9.12-3.77-13.18-6.67-8.77-6.27-14.8-14.56-18.27-24.73-2.89-8.47-3.39-17.12-1.77-25.9,1.45-7.82,4.81-14.76,9.6-21.1,4.84-6.42,10.99-11.2,18.18-14.59,5.78-2.73,11.92-4.22,18.37-4.58,5.65-.31,11.08.52,16.49,1.93.24.06.49.09.73.13Z"/>
    <path class="cls-4" d="m170.71,153.94c.75-1.84,1.45-3.7,2.24-5.52,2.06-4.76,4.92-8.99,8.39-12.84,5.23-5.81,11.52-10.11,18.74-12.99,3.88-1.55,7.89-2.82,12.13-3,3.19-.14,6.39-.34,9.57-.21,3.67.15,7.32.7,10.85,2.07-.08.54-.14,1.02-.21,1.49-.03.05-.08.09-.14.12-.03.08-.06.16-.1.24-.22.54-.49,1.06-.66,1.61-2.37,7.73-2.88,15.54-1.05,23.47,1.46,6.32,4.15,12.11,7.87,17.36,5.63,7.93,12.96,13.82,22.01,17.51,1.2.52,2.41,1.02,3.61,1.56.34.16.64.41.96.62-2.12,6.44-5.54,12.12-10.05,17.17-6.35,7.11-14.06,12.14-23.23,14.76-13.5,3.86-26.43,2.3-38.51-4.86-11.54-6.84-19.23-16.85-22.87-29.75-2.18-7.72-2.59-15.61-.76-23.51.03-.16.06-.31.09-.47.05-.19.09-.38.14-.57.05-.06.07-.13.04-.2.31-1.35.62-2.7.93-4.06Z"/>
    <path class="cls-2" d="m233.18,123.04c.09-.24.18-.48.27-.71,2.24.37,4.48.71,6.71,1.12,4.44.8,8.89.8,13.37.4,5.59-.5,10.89-2.02,15.95-4.43,4.25-2.02,8.17-4.49,11.67-7.69,3.54-3.25,6.68-6.81,9.14-10.9,1.76-2.94,3.13-6.13,4.64-9.22.34-.69-.12-1.76,1.02-2.05,4.02,1.25,7.84,2.96,11.32,5.34,11.94,8.17,19.59,19.34,21.83,33.6,2.91,18.52-2.88,34.23-17.03,46.69-6.5,5.72-14.07,9.33-22.58,10.95-.81.16-1.62.34-2.43.52-.08-.03-.16-.03-.23.02-3.16.09-6.31.18-9.47.27-.08,0-.17-.01-.25-.02-3.95-.18-7.81-.86-11.5-2.31-1.28-1.34-3.04-1.65-4.68-2.22-.08-.04-.17-.08-.25-.12-.07-.05-.15-.1-.22-.15-1.01-.49-2.05-.92-3.02-1.48-7.29-4.22-13.24-9.86-17.66-17.04-3.09-5.03-5.2-10.47-6.23-16.3.02-.03.06-.07.05-.1-.02-.07-.07-.13-.1-.19-.44-3.45-1.04-6.89-1.28-10.35-.32-4.57.19-9.12.97-13.62Z"/>
    <path class="cls-6" d="m260.92,182.4c1.64.57,3.41.88,4.68,2.22-.22.27-.44.54-.66.81-.32-.21-.62-.46-.96-.62-1.19-.54-2.4-1.04-3.61-1.56.18-.29.37-.57.55-.86Z"/>
    <path class="cls-6" d="m169.61,158.76c-.03.16-.06.31-.09.47.03-.16.06-.31.09-.47Z"/>
    <path class="cls-6" d="m286.83,186.68c.07-.05.15-.06.23-.02-.08,0-.15.02-.23.02Z"/>
    <path class="cls-6" d="m169.79,157.99c.02.07,0,.14-.04.2-.06-.08-.05-.15.04-.2Z"/>
    <path class="cls-6" d="m277.1,186.93c.08,0,.17.01.25.02-.08,0-.17-.01-.25-.02Z"/>
    <path class="cls-1" d="m260.92,182.4c-.18.29-.37.57-.55.86-9.05-3.69-16.38-9.58-22.01-17.51-3.73-5.25-6.41-11.04-7.87-17.36-1.83-7.93-1.33-15.74,1.05-23.47.17-.55.44-1.07.66-1.61.03-.08.06-.16.1-.24.06-.03.1-.07.14-.12.25.03.5.07.75.1-.78,4.51-1.29,9.06-.97,13.62.24,3.46.84,6.9,1.28,10.35-.01.03-.04.07-.03.1.02.06.05.12.08.19,1.03,5.83,3.15,11.27,6.23,16.3,4.41,7.18,10.36,12.82,17.66,17.04.97.56,2.01.99,3.02,1.48.07.05.15.1.22.15.08.04.17.08.25.12Z"/>
    <path class="cls-6" d="m232.29,123.05c-.03.08-.06.16-.1.24.03-.08.06-.16.1-.24Z"/>
    <path class="cls-6" d="m260.66,182.28c-.07-.05-.15-.1-.22-.15.07.05.15.1.22.15Z"/>
    <path class="cls-6" d="m233.54,147.31c-.03-.06-.06-.12-.08-.19,0-.03.02-.07.03-.1.04.06.08.12.1.19,0,.02-.03.06-.05.1Z"/>
  </g>
</svg>