<svg xmlns="http://www.w3.org/2000/svg" xmlns:xlink="http://www.w3.org/1999/xlink" width="500" zoomAndPan="magnify" viewBox="0 0 375 374.999991" height="500" preserveAspectRatio="xMidYMid meet" version="1.0"><defs><g/><clipPath id="4fa62b8827"><path d="M 163.875 102.054688 L 210.71875 102.054688 L 210.71875 168.84375 L 163.875 168.84375 Z M 163.875 102.054688 " clip-rule="nonzero"/></clipPath><clipPath id="4e33ce74b9"><path d="M 187.296875 102.054688 L 210.71875 135.390625 L 187.296875 168.726562 L 163.875 135.390625 Z M 187.296875 102.054688 " clip-rule="nonzero"/></clipPath><clipPath id="ad04e13519"><path d="M 274.5625 140.25 L 315.371094 140.25 L 315.371094 155.457031 L 274.5625 155.457031 Z M 274.5625 140.25 " clip-rule="nonzero"/></clipPath><clipPath id="f27b0a98e8"><path d="M 282.179688 155.457031 C 277.980469 155.457031 274.578125 152.050781 274.578125 147.851562 C 274.578125 143.652344 277.980469 140.25 282.179688 140.25 L 307.769531 140.25 C 311.96875 140.25 315.371094 143.652344 315.371094 147.851562 C 315.371094 152.050781 311.96875 155.457031 307.769531 155.457031 Z M 282.179688 155.457031 " clip-rule="nonzero"/></clipPath><clipPath id="7987efd302"><path d="M 249 66 L 289 66 L 289 156 L 249 156 Z M 249 66 " clip-rule="nonzero"/></clipPath><clipPath id="1a75199b3d"><path d="M 275.703125 157.144531 L 247.96875 69.46875 L 262.46875 64.882812 L 290.203125 152.554688 Z M 275.703125 157.144531 " clip-rule="nonzero"/></clipPath><clipPath id="476378e834"><path d="M 250.273438 76.753906 C 249.007812 72.75 251.226562 68.476562 255.230469 67.210938 C 259.234375 65.945312 263.507812 68.164062 264.773438 72.167969 L 287.910156 145.308594 C 289.175781 149.3125 286.957031 153.582031 282.953125 154.847656 C 278.949219 156.117188 274.675781 153.898438 273.410156 149.894531 Z M 250.273438 76.753906 " clip-rule="nonzero"/></clipPath><clipPath id="a761807e6e"><path d="M 59.203125 138.5625 L 100.011719 138.5625 L 100.011719 153.769531 L 59.203125 153.769531 Z M 59.203125 138.5625 " clip-rule="nonzero"/></clipPath><clipPath id="f8f03332d5"><path d="M 66.820312 153.769531 C 62.621094 153.769531 59.21875 150.363281 59.21875 146.164062 C 59.21875 141.964844 62.621094 138.5625 66.820312 138.5625 L 92.410156 138.5625 C 96.609375 138.5625 100.011719 141.964844 100.011719 146.164062 C 100.011719 150.363281 96.609375 153.769531 92.410156 153.769531 Z M 66.820312 153.769531 " clip-rule="nonzero"/></clipPath><clipPath id="ca60a837a5"><path d="M 87 65 L 126 65 L 126 154 L 87 154 Z M 87 65 " clip-rule="nonzero"/></clipPath><clipPath id="ce906aa821"><path d="M 127.371094 67.847656 L 99.566406 155.496094 L 85.070312 150.898438 L 112.875 63.25 Z M 127.371094 67.847656 " clip-rule="nonzero"/></clipPath><clipPath id="ae0cdb2aee"><path d="M 101.875 148.214844 C 100.605469 152.21875 96.332031 154.433594 92.328125 153.164062 C 88.328125 151.894531 86.109375 147.621094 87.382812 143.617188 L 110.578125 70.496094 C 111.847656 66.492188 116.121094 64.277344 120.121094 65.546875 C 124.125 66.816406 126.339844 71.089844 125.070312 75.09375 Z M 101.875 148.214844 " clip-rule="nonzero"/></clipPath><clipPath id="ef75a8694a"><path d="M 110.472656 64.917969 L 264.089844 64.917969 L 264.089844 80.125 L 110.472656 80.125 Z M 110.472656 64.917969 " clip-rule="nonzero"/></clipPath><clipPath id="debbf1f344"><path d="M 118.101562 80.125 C 113.902344 80.125 110.5 76.722656 110.5 72.523438 C 110.5 68.324219 113.902344 64.917969 118.101562 64.917969 L 256.484375 64.917969 C 260.683594 64.917969 264.089844 68.324219 264.089844 72.523438 C 264.089844 76.722656 260.683594 80.125 256.484375 80.125 Z M 118.101562 80.125 " clip-rule="nonzero"/></clipPath><clipPath id="d62848360d"><path d="M 274.5625 140.25 L 315.371094 140.25 L 315.371094 155.457031 L 274.5625 155.457031 Z M 274.5625 140.25 " clip-rule="nonzero"/></clipPath><clipPath id="60163e48f1"><path d="M 282.179688 155.457031 C 277.980469 155.457031 274.578125 152.050781 274.578125 147.851562 C 274.578125 143.652344 277.980469 140.25 282.179688 140.25 L 307.769531 140.25 C 311.96875 140.25 315.371094 143.652344 315.371094 147.851562 C 315.371094 152.050781 311.96875 155.457031 307.769531 155.457031 Z M 282.179688 155.457031 " clip-rule="nonzero"/></clipPath><clipPath id="b96a4d6ee4"><path d="M 249 66 L 289 66 L 289 156 L 249 156 Z M 249 66 " clip-rule="nonzero"/></clipPath><clipPath id="7081284aa8"><path d="M 275.703125 157.144531 L 247.96875 69.46875 L 262.46875 64.882812 L 290.203125 152.554688 Z M 275.703125 157.144531 " clip-rule="nonzero"/></clipPath><clipPath id="48f90d286c"><path d="M 250.273438 76.753906 C 249.007812 72.75 251.226562 68.476562 255.230469 67.210938 C 259.234375 65.945312 263.507812 68.164062 264.773438 72.167969 L 287.910156 145.308594 C 289.175781 149.3125 286.957031 153.582031 282.953125 154.847656 C 278.949219 156.117188 274.675781 153.898438 273.410156 149.894531 Z M 250.273438 76.753906 " clip-rule="nonzero"/></clipPath><clipPath id="8390ae9355"><path d="M 59.203125 138.5625 L 100.011719 138.5625 L 100.011719 153.769531 L 59.203125 153.769531 Z M 59.203125 138.5625 " clip-rule="nonzero"/></clipPath><clipPath id="443a8150ab"><path d="M 66.820312 153.769531 C 62.621094 153.769531 59.21875 150.363281 59.21875 146.164062 C 59.21875 141.964844 62.621094 138.5625 66.820312 138.5625 L 92.410156 138.5625 C 96.609375 138.5625 100.011719 141.964844 100.011719 146.164062 C 100.011719 150.363281 96.609375 153.769531 92.410156 153.769531 Z M 66.820312 153.769531 " clip-rule="nonzero"/></clipPath><clipPath id="9e3b27088a"><path d="M 87 65 L 126 65 L 126 154 L 87 154 Z M 87 65 " clip-rule="nonzero"/></clipPath><clipPath id="a0886f3108"><path d="M 127.371094 67.847656 L 99.566406 155.496094 L 85.070312 150.898438 L 112.875 63.25 Z M 127.371094 67.847656 " clip-rule="nonzero"/></clipPath><clipPath id="a420e18fd0"><path d="M 101.875 148.214844 C 100.605469 152.21875 96.332031 154.433594 92.328125 153.164062 C 88.328125 151.894531 86.109375 147.621094 87.382812 143.617188 L 110.578125 70.496094 C 111.847656 66.492188 116.121094 64.277344 120.121094 65.546875 C 124.125 66.816406 126.339844 71.089844 125.070312 75.09375 Z M 101.875 148.214844 " clip-rule="nonzero"/></clipPath><clipPath id="a0262da87c"><path d="M 110.472656 64.917969 L 264.089844 64.917969 L 264.089844 80.125 L 110.472656 80.125 Z M 110.472656 64.917969 " clip-rule="nonzero"/></clipPath><clipPath id="2ff600b7e3"><path d="M 118.101562 80.125 C 113.902344 80.125 110.5 76.722656 110.5 72.523438 C 110.5 68.324219 113.902344 64.917969 118.101562 64.917969 L 256.484375 64.917969 C 260.683594 64.917969 264.089844 68.324219 264.089844 72.523438 C 264.089844 76.722656 260.683594 80.125 256.484375 80.125 Z M 118.101562 80.125 " clip-rule="nonzero"/></clipPath><clipPath id="ae7a0e714e"><path d="M 89.808594 174.875 L 140.09375 174.875 L 140.09375 270.855469 L 89.808594 270.855469 Z M 89.808594 174.875 " clip-rule="nonzero"/></clipPath><clipPath id="06dc0e6b1c"><path d="M 59.863281 174.875 L 119.84375 174.875 L 119.84375 270.933594 L 59.863281 270.933594 Z M 59.863281 174.875 " clip-rule="nonzero"/></clipPath><clipPath id="eabb174f9c"><path d="M 89.851562 270.855469 L 119.84375 174.875 L 59.863281 174.875 Z M 89.851562 270.855469 " clip-rule="nonzero"/></clipPath><clipPath id="19795fef1c"><path d="M 108.921875 174.875 L 171.3125 174.875 L 171.3125 218.394531 L 108.921875 218.394531 Z M 108.921875 174.875 " clip-rule="nonzero"/></clipPath><clipPath id="54c76b192c"><path d="M 140.09375 174.875 L 171.269531 218.394531 L 108.921875 218.394531 Z M 140.09375 174.875 " clip-rule="nonzero"/></clipPath><clipPath id="d52c555eca"><path d="M 121.75 218.394531 L 171.203125 218.394531 L 171.203125 270.855469 L 121.75 270.855469 Z M 121.75 218.394531 " clip-rule="nonzero"/></clipPath><clipPath id="891c0aadd2"><path d="M 75.113281 212.152344 L 171.214844 212.152344 L 171.214844 227.019531 L 75.113281 227.019531 Z M 75.113281 212.152344 " clip-rule="nonzero"/></clipPath><clipPath id="647de7ba89"><path d="M 143.078125 212.152344 C 158.609375 212.152344 171.203125 215.480469 171.203125 219.585938 C 171.203125 223.691406 158.609375 227.019531 143.078125 227.019531 L 103.238281 227.019531 C 87.703125 227.019531 75.113281 223.691406 75.113281 219.585938 C 75.113281 215.480469 87.703125 212.152344 103.238281 212.152344 Z M 143.078125 212.152344 " clip-rule="nonzero"/></clipPath><clipPath id="1671e0fc00"><path d="M 255.480469 174.875 L 315.78125 174.875 L 315.78125 270.976562 L 255.480469 270.976562 Z M 255.480469 174.875 " clip-rule="nonzero"/></clipPath><clipPath id="724a336562"><path d="M 285.628906 270.855469 L 315.78125 174.875 L 255.480469 174.875 Z M 285.628906 270.855469 " clip-rule="nonzero"/></clipPath><clipPath id="ca738d72b6"><path d="M 202.875 218.929688 L 285.628906 218.929688 L 285.628906 270.855469 L 202.875 270.855469 Z M 202.875 218.929688 " clip-rule="nonzero"/></clipPath><clipPath id="789b45bfe3"><path d="M 202.875 174.875 L 265.515625 174.875 L 265.515625 218.929688 L 202.875 218.929688 Z M 202.875 174.875 " clip-rule="nonzero"/></clipPath><clipPath id="b3f9ff4b52"><path d="M 234.15625 174.875 L 265.441406 218.929688 L 202.875 218.929688 Z M 234.15625 174.875 " clip-rule="nonzero"/></clipPath><clipPath id="97d4a33b1b"><path d="M 234.15625 174.875 L 273.921875 174.875 L 273.921875 226.800781 L 234.15625 226.800781 Z M 234.15625 174.875 " clip-rule="nonzero"/></clipPath><clipPath id="b8ea72baf1"><path d="M 202.875 217.054688 L 245.765625 217.054688 L 245.765625 220.804688 L 202.875 220.804688 Z M 202.875 217.054688 " clip-rule="nonzero"/></clipPath><clipPath id="ddde50662b"><path d="M 234.742188 217.054688 C 240.828125 217.054688 245.761719 217.894531 245.761719 218.929688 C 245.761719 219.964844 240.828125 220.804688 234.742188 220.804688 L 213.898438 220.804688 C 207.808594 220.804688 202.875 219.964844 202.875 218.929688 C 202.875 217.894531 207.808594 217.054688 213.898438 217.054688 Z M 234.742188 217.054688 " clip-rule="nonzero"/></clipPath><clipPath id="2dc76d848c"><path d="M 178.742188 174.867188 L 195.5625 174.867188 L 195.5625 187.496094 L 178.742188 187.496094 Z M 178.742188 174.867188 " clip-rule="nonzero"/></clipPath><clipPath id="aac7a7e65c"><path d="M 187.160156 187.496094 L 178.757812 174.867188 L 195.5625 174.867188 Z M 187.160156 187.496094 " clip-rule="nonzero"/></clipPath></defs><g clip-path="url(#4fa62b8827)"><g clip-path="url(#4e33ce74b9)"><path fill="#81689d" d="M 163.875 102.054688 L 210.71875 102.054688 L 210.71875 168.660156 L 163.875 168.660156 Z M 163.875 102.054688 " fill-opacity="1" fill-rule="nonzero"/></g></g><g fill="#1f2544" fill-opacity="1"><g transform="translate(121.511284, 283.695129)"><g><path d="M 131.15625 -142.78125 L 77.515625 -67.515625 L 77.515625 0 L 53.640625 0 L 53.640625 -67.515625 L 0 -142.78125 L 29.171875 -142.78125 L 65.671875 -91.78125 L 101.984375 -142.78125 Z M 131.15625 -142.78125 "/></g></g></g><g clip-path="url(#ad04e13519)"><g clip-path="url(#f27b0a98e8)"><path fill="#1f2544" d="M 315.371094 155.457031 L 274.5625 155.457031 L 274.5625 140.25 L 315.371094 140.25 Z M 315.371094 155.457031 " fill-opacity="1" fill-rule="nonzero"/></g></g><g clip-path="url(#7987efd302)"><g clip-path="url(#1a75199b3d)"><g clip-path="url(#476378e834)"><path fill="#1f2544" d="M 275.703125 157.144531 L 247.988281 69.527344 L 262.488281 64.941406 L 290.203125 152.554688 Z M 275.703125 157.144531 " fill-opacity="1" fill-rule="nonzero"/></g></g></g><g clip-path="url(#a761807e6e)"><g clip-path="url(#f8f03332d5)"><path fill="#1f2544" d="M 100.011719 153.769531 L 59.203125 153.769531 L 59.203125 138.5625 L 100.011719 138.5625 Z M 100.011719 153.769531 " fill-opacity="1" fill-rule="nonzero"/></g></g><g clip-path="url(#ca60a837a5)"><g clip-path="url(#ce906aa821)"><g clip-path="url(#ae0cdb2aee)"><path fill="#1f2544" d="M 127.371094 67.847656 L 99.585938 155.441406 L 85.089844 150.84375 L 112.875 63.25 Z M 127.371094 67.847656 " fill-opacity="1" fill-rule="nonzero"/></g></g></g><g clip-path="url(#ef75a8694a)"><g clip-path="url(#debbf1f344)"><path fill="#1f2544" d="M 264.089844 80.125 L 110.472656 80.125 L 110.472656 64.917969 L 264.089844 64.917969 Z M 264.089844 80.125 " fill-opacity="1" fill-rule="nonzero"/></g></g><g clip-path="url(#d62848360d)"><g clip-path="url(#60163e48f1)"><path fill="#1f2544" d="M 315.371094 155.457031 L 274.5625 155.457031 L 274.5625 140.25 L 315.371094 140.25 Z M 315.371094 155.457031 " fill-opacity="1" fill-rule="nonzero"/></g></g><g clip-path="url(#b96a4d6ee4)"><g clip-path="url(#7081284aa8)"><g clip-path="url(#48f90d286c)"><path fill="#1f2544" d="M 275.703125 157.144531 L 247.988281 69.527344 L 262.488281 64.941406 L 290.203125 152.554688 Z M 275.703125 157.144531 " fill-opacity="1" fill-rule="nonzero"/></g></g></g><g clip-path="url(#8390ae9355)"><g clip-path="url(#443a8150ab)"><path fill="#1f2544" d="M 100.011719 153.769531 L 59.203125 153.769531 L 59.203125 138.5625 L 100.011719 138.5625 Z M 100.011719 153.769531 " fill-opacity="1" fill-rule="nonzero"/></g></g><g clip-path="url(#9e3b27088a)"><g clip-path="url(#a0886f3108)"><g clip-path="url(#a420e18fd0)"><path fill="#1f2544" d="M 127.371094 67.847656 L 99.585938 155.441406 L 85.089844 150.84375 L 112.875 63.25 Z M 127.371094 67.847656 " fill-opacity="1" fill-rule="nonzero"/></g></g></g><g clip-path="url(#a0262da87c)"><g clip-path="url(#2ff600b7e3)"><path fill="#1f2544" d="M 264.089844 80.125 L 110.472656 80.125 L 110.472656 64.917969 L 264.089844 64.917969 Z M 264.089844 80.125 " fill-opacity="1" fill-rule="nonzero"/></g></g><g clip-path="url(#ae7a0e714e)"><path fill="#81689d" d="M 89.808594 174.875 L 140.09375 174.875 L 140.09375 270.933594 L 89.808594 270.933594 Z M 89.808594 174.875 " fill-opacity="1" fill-rule="nonzero"/></g><g clip-path="url(#06dc0e6b1c)"><g clip-path="url(#eabb174f9c)"><path fill="#81689d" d="M 59.863281 174.875 L 119.84375 174.875 L 119.84375 270.933594 L 59.863281 270.933594 Z M 59.863281 174.875 " fill-opacity="1" fill-rule="nonzero"/></g></g><g clip-path="url(#19795fef1c)"><g clip-path="url(#54c76b192c)"><path fill="#81689d" d="M 108.921875 174.875 L 171.3125 174.875 L 171.3125 218.394531 L 108.921875 218.394531 Z M 108.921875 174.875 " fill-opacity="1" fill-rule="nonzero"/></g></g><g clip-path="url(#d52c555eca)"><path fill="#81689d" d="M 121.75 218.394531 L 171.203125 218.394531 L 171.203125 270.933594 L 121.75 270.933594 Z M 121.75 218.394531 " fill-opacity="1" fill-rule="nonzero"/></g><g clip-path="url(#891c0aadd2)"><g clip-path="url(#647de7ba89)"><path fill="#81689d" d="M 75.113281 212.152344 L 171.214844 212.152344 L 171.214844 227.019531 L 75.113281 227.019531 Z M 75.113281 212.152344 " fill-opacity="1" fill-rule="nonzero"/></g></g><g clip-path="url(#1671e0fc00)"><g clip-path="url(#724a336562)"><path fill="#81689d" d="M 255.480469 174.875 L 315.78125 174.875 L 315.78125 270.742188 L 255.480469 270.742188 Z M 255.480469 174.875 " fill-opacity="1" fill-rule="nonzero"/></g></g><g clip-path="url(#ca738d72b6)"><path fill="#81689d" d="M 202.875 218.929688 L 285.632812 218.929688 L 285.632812 270.855469 L 202.875 270.855469 Z M 202.875 218.929688 " fill-opacity="1" fill-rule="nonzero"/></g><g clip-path="url(#789b45bfe3)"><g clip-path="url(#b3f9ff4b52)"><path fill="#81689d" d="M 202.875 174.875 L 265.515625 174.875 L 265.515625 218.929688 L 202.875 218.929688 Z M 202.875 174.875 " fill-opacity="1" fill-rule="nonzero"/></g></g><g clip-path="url(#97d4a33b1b)"><path fill="#81689d" d="M 234.15625 174.875 L 273.921875 174.875 L 273.921875 226.753906 L 234.15625 226.753906 Z M 234.15625 174.875 " fill-opacity="1" fill-rule="nonzero"/></g><g clip-path="url(#b8ea72baf1)"><g clip-path="url(#ddde50662b)"><path fill="#81689d" d="M 202.875 217.054688 L 245.765625 217.054688 L 245.765625 220.804688 L 202.875 220.804688 Z M 202.875 217.054688 " fill-opacity="1" fill-rule="nonzero"/></g></g><g clip-path="url(#2dc76d848c)"><g clip-path="url(#aac7a7e65c)"><path fill="#81689d" d="M 195.5625 187.496094 L 178.742188 187.496094 L 178.742188 174.867188 L 195.5625 174.867188 Z M 195.5625 187.496094 " fill-opacity="1" fill-rule="nonzero"/></g></g></svg>