<svg xmlns="http://www.w3.org/2000/svg" xmlns:xlink="http://www.w3.org/1999/xlink" width="500" zoomAndPan="magnify" viewBox="0 0 375 374.999991" height="500" preserveAspectRatio="xMidYMid meet" version="1.0"><defs><g/><clipPath id="dad998ea10"><path d="M 149.910156 201.480469 L 204 201.480469 L 204 215.582031 L 149.910156 215.582031 Z M 149.910156 201.480469 " clip-rule="nonzero"/></clipPath><clipPath id="4d187eb023"><path d="M 149.910156 201.480469 L 194.949219 201.480469 L 204 208.53125 L 194.949219 215.582031 L 149.910156 215.582031 L 158.960938 208.53125 Z M 149.910156 201.480469 " clip-rule="nonzero"/></clipPath><clipPath id="00cfa8646c"><path d="M 198.566406 201.480469 L 338.601562 201.480469 L 338.601562 215.582031 L 198.566406 215.582031 Z M 198.566406 201.480469 " clip-rule="nonzero"/></clipPath><clipPath id="683890563e"><path d="M 198.566406 201.480469 L 329.507812 201.480469 L 338.5625 208.53125 L 329.507812 215.582031 L 198.566406 215.582031 L 207.621094 208.53125 Z M 198.566406 201.480469 " clip-rule="nonzero"/></clipPath><clipPath id="0eefb5f274"><path d="M 79.109375 138.515625 L 100.496094 138.515625 L 100.496094 169 L 79.109375 169 Z M 79.109375 138.515625 " clip-rule="nonzero"/></clipPath><clipPath id="0adb006270"><path d="M 89.804688 138.515625 L 100.496094 153.734375 L 89.804688 168.953125 L 79.109375 153.734375 Z M 89.804688 138.515625 " clip-rule="nonzero"/></clipPath><clipPath id="4882f9d73c"><path d="M 129.644531 155.953125 L 148.277344 155.953125 L 148.277344 162.898438 L 129.644531 162.898438 Z M 129.644531 155.953125 " clip-rule="nonzero"/></clipPath><clipPath id="4afa44a739"><path d="M 133.121094 162.898438 C 131.203125 162.898438 129.652344 161.34375 129.652344 159.425781 C 129.652344 157.507812 131.203125 155.953125 133.121094 155.953125 L 144.804688 155.953125 C 146.722656 155.953125 148.277344 157.507812 148.277344 159.425781 C 148.277344 161.34375 146.722656 162.898438 144.804688 162.898438 Z M 133.121094 162.898438 " clip-rule="nonzero"/></clipPath><clipPath id="0e7583775b"><path d="M 118 122 L 136 122 L 136 163 L 118 163 Z M 118 122 " clip-rule="nonzero"/></clipPath><clipPath id="e9ab90cb51"><path d="M 130.164062 163.667969 L 117.503906 123.640625 L 124.121094 121.546875 L 136.785156 161.574219 Z M 130.164062 163.667969 " clip-rule="nonzero"/></clipPath><clipPath id="7d256c2c0b"><path d="M 118.554688 126.964844 C 117.976562 125.136719 118.988281 123.1875 120.816406 122.609375 C 122.644531 122.03125 124.597656 123.042969 125.175781 124.871094 L 135.738281 158.261719 C 136.316406 160.089844 135.304688 162.042969 133.476562 162.621094 C 131.648438 163.199219 129.695312 162.183594 129.117188 160.355469 Z M 118.554688 126.964844 " clip-rule="nonzero"/></clipPath><clipPath id="d74f342617"><path d="M 31.320312 155.183594 L 49.953125 155.183594 L 49.953125 162.125 L 31.320312 162.125 Z M 31.320312 155.183594 " clip-rule="nonzero"/></clipPath><clipPath id="4462330629"><path d="M 34.796875 162.125 C 32.882812 162.125 31.328125 160.570312 31.328125 158.65625 C 31.328125 156.738281 32.882812 155.183594 34.796875 155.183594 L 46.480469 155.183594 C 48.398438 155.183594 49.953125 156.738281 49.953125 158.65625 C 49.953125 160.570312 48.398438 162.125 46.480469 162.125 Z M 34.796875 162.125 " clip-rule="nonzero"/></clipPath><clipPath id="97d33584d9"><path d="M 44 121 L 62 121 L 62 163 L 44 163 Z M 44 121 " clip-rule="nonzero"/></clipPath><clipPath id="c3a0e9f7b8"><path d="M 62.441406 122.898438 L 49.75 162.914062 L 43.132812 160.816406 L 55.824219 120.796875 Z M 62.441406 122.898438 " clip-rule="nonzero"/></clipPath><clipPath id="8676932911"><path d="M 50.804688 159.589844 C 50.222656 161.417969 48.273438 162.429688 46.445312 161.851562 C 44.617188 161.269531 43.605469 159.320312 44.1875 157.492188 L 54.777344 124.109375 C 55.355469 122.28125 57.308594 121.269531 59.132812 121.847656 C 60.960938 122.429688 61.972656 124.378906 61.394531 126.207031 Z M 50.804688 159.589844 " clip-rule="nonzero"/></clipPath><clipPath id="afd0286a66"><path d="M 54.730469 121.5625 L 124.863281 121.5625 L 124.863281 128.503906 L 54.730469 128.503906 Z M 54.730469 121.5625 " clip-rule="nonzero"/></clipPath><clipPath id="3d72952a36"><path d="M 58.210938 128.503906 C 56.292969 128.503906 54.738281 126.949219 54.738281 125.03125 C 54.738281 123.117188 56.292969 121.5625 58.210938 121.5625 L 121.390625 121.5625 C 123.308594 121.5625 124.863281 123.117188 124.863281 125.03125 C 124.863281 126.949219 123.308594 128.503906 121.390625 128.503906 Z M 58.210938 128.503906 " clip-rule="nonzero"/></clipPath><clipPath id="ea4d6b5ea4"><path d="M 129.644531 155.953125 L 148.277344 155.953125 L 148.277344 162.898438 L 129.644531 162.898438 Z M 129.644531 155.953125 " clip-rule="nonzero"/></clipPath><clipPath id="eaacbd91a4"><path d="M 133.121094 162.898438 C 131.203125 162.898438 129.652344 161.34375 129.652344 159.425781 C 129.652344 157.507812 131.203125 155.953125 133.121094 155.953125 L 144.804688 155.953125 C 146.722656 155.953125 148.277344 157.507812 148.277344 159.425781 C 148.277344 161.34375 146.722656 162.898438 144.804688 162.898438 Z M 133.121094 162.898438 " clip-rule="nonzero"/></clipPath><clipPath id="127e2043cf"><path d="M 118 122 L 136 122 L 136 163 L 118 163 Z M 118 122 " clip-rule="nonzero"/></clipPath><clipPath id="8468d4cb8b"><path d="M 130.164062 163.667969 L 117.503906 123.640625 L 124.121094 121.546875 L 136.785156 161.574219 Z M 130.164062 163.667969 " clip-rule="nonzero"/></clipPath><clipPath id="96ffacca7a"><path d="M 118.554688 126.964844 C 117.976562 125.136719 118.988281 123.1875 120.816406 122.609375 C 122.644531 122.03125 124.597656 123.042969 125.175781 124.871094 L 135.738281 158.261719 C 136.316406 160.089844 135.304688 162.042969 133.476562 162.621094 C 131.648438 163.199219 129.695312 162.183594 129.117188 160.355469 Z M 118.554688 126.964844 " clip-rule="nonzero"/></clipPath><clipPath id="1fbb703041"><path d="M 31.320312 155.183594 L 49.953125 155.183594 L 49.953125 162.125 L 31.320312 162.125 Z M 31.320312 155.183594 " clip-rule="nonzero"/></clipPath><clipPath id="97e0bd1514"><path d="M 34.796875 162.125 C 32.882812 162.125 31.328125 160.570312 31.328125 158.65625 C 31.328125 156.738281 32.882812 155.183594 34.796875 155.183594 L 46.480469 155.183594 C 48.398438 155.183594 49.953125 156.738281 49.953125 158.65625 C 49.953125 160.570312 48.398438 162.125 46.480469 162.125 Z M 34.796875 162.125 " clip-rule="nonzero"/></clipPath><clipPath id="c414233b0f"><path d="M 44 121 L 62 121 L 62 163 L 44 163 Z M 44 121 " clip-rule="nonzero"/></clipPath><clipPath id="92efa21941"><path d="M 62.441406 122.898438 L 49.75 162.914062 L 43.132812 160.816406 L 55.824219 120.796875 Z M 62.441406 122.898438 " clip-rule="nonzero"/></clipPath><clipPath id="e6bc56b687"><path d="M 50.804688 159.589844 C 50.222656 161.417969 48.273438 162.429688 46.445312 161.851562 C 44.617188 161.269531 43.605469 159.320312 44.1875 157.492188 L 54.777344 124.109375 C 55.355469 122.28125 57.308594 121.269531 59.132812 121.847656 C 60.960938 122.429688 61.972656 124.378906 61.394531 126.207031 Z M 50.804688 159.589844 " clip-rule="nonzero"/></clipPath><clipPath id="8a0dfd9760"><path d="M 54.730469 121.5625 L 124.863281 121.5625 L 124.863281 128.503906 L 54.730469 128.503906 Z M 54.730469 121.5625 " clip-rule="nonzero"/></clipPath><clipPath id="ea809be221"><path d="M 58.210938 128.503906 C 56.292969 128.503906 54.738281 126.949219 54.738281 125.03125 C 54.738281 123.117188 56.292969 121.5625 58.210938 121.5625 L 121.390625 121.5625 C 123.308594 121.5625 124.863281 123.117188 124.863281 125.03125 C 124.863281 126.949219 123.308594 128.503906 121.390625 128.503906 Z M 58.210938 128.503906 " clip-rule="nonzero"/></clipPath><clipPath id="c4e1f90be2"><path d="M 45.292969 171.761719 L 68.253906 171.761719 L 68.253906 215.582031 L 45.292969 215.582031 Z M 45.292969 171.761719 " clip-rule="nonzero"/></clipPath><clipPath id="e72fd9e7cb"><path d="M 31.621094 171.761719 L 59.007812 171.761719 L 59.007812 215.617188 L 31.621094 215.617188 Z M 31.621094 171.761719 " clip-rule="nonzero"/></clipPath><clipPath id="0f3a4e8f29"><path d="M 45.316406 215.582031 L 59.007812 171.761719 L 31.621094 171.761719 Z M 45.316406 215.582031 " clip-rule="nonzero"/></clipPath><clipPath id="0dff11fc89"><path d="M 54.019531 171.761719 L 82.503906 171.761719 L 82.503906 191.628906 L 54.019531 191.628906 Z M 54.019531 171.761719 " clip-rule="nonzero"/></clipPath><clipPath id="2ba556bdf9"><path d="M 68.253906 171.761719 L 82.484375 191.628906 L 54.019531 191.628906 Z M 68.253906 171.761719 " clip-rule="nonzero"/></clipPath><clipPath id="ce3d67446e"><path d="M 59.878906 191.628906 L 82.453125 191.628906 L 82.453125 215.582031 L 59.878906 215.582031 Z M 59.878906 191.628906 " clip-rule="nonzero"/></clipPath><clipPath id="b9c08115ce"><path d="M 38.585938 188.78125 L 82.460938 188.78125 L 82.460938 195.570312 L 38.585938 195.570312 Z M 38.585938 188.78125 " clip-rule="nonzero"/></clipPath><clipPath id="7e6ed09f36"><path d="M 69.613281 188.78125 C 76.707031 188.78125 82.453125 190.300781 82.453125 192.175781 C 82.453125 194.050781 76.707031 195.570312 69.613281 195.570312 L 51.425781 195.570312 C 44.332031 195.570312 38.585938 194.050781 38.585938 192.175781 C 38.585938 190.300781 44.332031 188.78125 51.425781 188.78125 Z M 69.613281 188.78125 " clip-rule="nonzero"/></clipPath><clipPath id="40858d045a"><path d="M 120.933594 171.761719 L 148.460938 171.761719 L 148.460938 215.636719 L 120.933594 215.636719 Z M 120.933594 171.761719 " clip-rule="nonzero"/></clipPath><clipPath id="fe53739975"><path d="M 134.699219 215.582031 L 148.460938 171.761719 L 120.933594 171.761719 Z M 134.699219 215.582031 " clip-rule="nonzero"/></clipPath><clipPath id="9461bd5aa3"><path d="M 96.914062 191.875 L 134.699219 191.875 L 134.699219 215.582031 L 96.914062 215.582031 Z M 96.914062 191.875 " clip-rule="nonzero"/></clipPath><clipPath id="eb4cbc3eba"><path d="M 96.914062 171.761719 L 125.515625 171.761719 L 125.515625 191.875 L 96.914062 191.875 Z M 96.914062 171.761719 " clip-rule="nonzero"/></clipPath><clipPath id="c7d70ed043"><path d="M 111.199219 171.761719 L 125.480469 191.875 L 96.914062 191.875 Z M 111.199219 171.761719 " clip-rule="nonzero"/></clipPath><clipPath id="4c06360d25"><path d="M 111.199219 171.761719 L 129.351562 171.761719 L 129.351562 195.46875 L 111.199219 195.46875 Z M 111.199219 171.761719 " clip-rule="nonzero"/></clipPath><clipPath id="47c3870559"><path d="M 96.914062 191.019531 L 116.496094 191.019531 L 116.496094 192.730469 L 96.914062 192.730469 Z M 96.914062 191.019531 " clip-rule="nonzero"/></clipPath><clipPath id="0ccc45668c"><path d="M 111.464844 191.019531 C 114.242188 191.019531 116.496094 191.402344 116.496094 191.875 C 116.496094 192.347656 114.242188 192.730469 111.464844 192.730469 L 101.949219 192.730469 C 99.167969 192.730469 96.914062 192.347656 96.914062 191.875 C 96.914062 191.402344 99.167969 191.019531 101.949219 191.019531 Z M 111.464844 191.019531 " clip-rule="nonzero"/></clipPath><clipPath id="bda257738b"><path d="M 85.894531 171.75 L 93.574219 171.75 L 93.574219 177.515625 L 85.894531 177.515625 Z M 85.894531 171.75 " clip-rule="nonzero"/></clipPath><clipPath id="4845a06c2b"><path d="M 89.738281 177.515625 L 85.902344 171.75 L 93.574219 171.75 Z M 89.738281 177.515625 " clip-rule="nonzero"/></clipPath></defs><g fill="#2d2d2d" fill-opacity="1"><g transform="translate(152.05779, 193.177885)"><g><path d="M 23.59375 -11.15625 C 23.988281 -13.4375 22.867188 -15.179688 20.234375 -16.390625 L 14.6875 -18.59375 C 8.257812 -21.457031 5.207031 -25.40625 5.53125 -30.4375 C 5.664062 -32.769531 6.429688 -34.835938 7.828125 -36.640625 C 9.222656 -38.441406 11.179688 -39.851562 13.703125 -40.875 C 16.234375 -41.894531 18.960938 -42.390625 21.890625 -42.359375 C 25.929688 -42.273438 29.191406 -41.070312 31.671875 -38.75 C 34.160156 -36.425781 35.382812 -33.3125 35.34375 -29.40625 L 26.96875 -29.40625 C 27.0625 -31.300781 26.644531 -32.773438 25.71875 -33.828125 C 24.789062 -34.878906 23.351562 -35.425781 21.40625 -35.46875 C 19.488281 -35.5 17.820312 -35.0625 16.40625 -34.15625 C 15 -33.25 14.160156 -32.003906 13.890625 -30.421875 C 13.523438 -28.328125 14.921875 -26.671875 18.078125 -25.453125 L 21.859375 -24.015625 L 24.046875 -23.015625 C 29.691406 -20.222656 32.332031 -16.300781 31.96875 -11.25 C 31.789062 -8.78125 31 -6.648438 29.59375 -4.859375 C 28.1875 -3.078125 26.273438 -1.707031 23.859375 -0.75 C 21.441406 0.207031 18.78125 0.660156 15.875 0.609375 C 12.90625 0.546875 10.257812 -0.078125 7.9375 -1.265625 C 5.625 -2.453125 3.867188 -4.125 2.671875 -6.28125 C 1.535156 -8.289062 1.007812 -10.585938 1.09375 -13.171875 L 9.5 -13.140625 C 9.226562 -8.609375 11.457031 -6.304688 16.1875 -6.234375 C 18.226562 -6.234375 19.910156 -6.679688 21.234375 -7.578125 C 22.554688 -8.472656 23.34375 -9.664062 23.59375 -11.15625 Z M 23.59375 -11.15625 "/></g></g></g><g fill="#2d2d2d" fill-opacity="1"><g transform="translate(187.374799, 193.177885)"><g><path d="M 34.296875 -12.140625 L 44.359375 -41.78125 L 52.9375 -41.78125 L 37.421875 0 L 28.953125 0 L 26.75 -27.828125 L 15.8125 0 L 7.34375 0 L 4.875 -41.78125 L 13.078125 -41.78125 L 13.921875 -12.28125 L 25.171875 -41.78125 L 32.3125 -41.78125 Z M 34.296875 -12.140625 "/></g></g></g><g fill="#2d2d2d" fill-opacity="1"><g transform="translate(237.495686, 193.177885)"><g><path d="M 18.359375 -23.015625 L 30.046875 -41.78125 L 39.6875 -41.78125 L 21.4375 -14.6875 L 18.90625 0 L 10.359375 0 L 13.078125 -15.640625 L 4.421875 -41.75 L 13.28125 -41.78125 Z M 18.359375 -23.015625 "/></g></g></g><g fill="#2d2d2d" fill-opacity="1"><g transform="translate(273.013518, 193.177885)"><g><path d="M 28 -17.078125 L 12 -17.078125 L 9.015625 0 L 0.609375 0 L 7.859375 -41.78125 L 34.3125 -41.78125 L 33.078125 -34.8125 L 15.0625 -34.8125 L 13.171875 -24.015625 L 29.234375 -24.015625 Z M 28 -17.078125 "/></g></g></g><g fill="#2d2d2d" fill-opacity="1"><g transform="translate(304.514793, 193.177885)"><g><path d="M 37.1875 -34.8125 L 24.796875 -34.8125 L 18.765625 0 L 10.359375 0 L 16.390625 -34.8125 L 4.125 -34.8125 L 5.359375 -41.78125 L 38.421875 -41.78125 Z M 37.1875 -34.8125 "/></g></g></g><g clip-path="url(#dad998ea10)"><g clip-path="url(#4d187eb023)"><path fill="#81689d" d="M 149.910156 201.480469 L 204.003906 201.480469 L 204.003906 215.582031 L 149.910156 215.582031 Z M 149.910156 201.480469 " fill-opacity="1" fill-rule="nonzero"/></g></g><g clip-path="url(#00cfa8646c)"><g clip-path="url(#683890563e)"><path fill="#ffd0ec" d="M 198.566406 201.480469 L 338.546875 201.480469 L 338.546875 215.582031 L 198.566406 215.582031 Z M 198.566406 201.480469 " fill-opacity="1" fill-rule="nonzero"/></g></g><g clip-path="url(#0eefb5f274)"><g clip-path="url(#0adb006270)"><path fill="#81689d" d="M 79.109375 138.515625 L 100.496094 138.515625 L 100.496094 168.925781 L 79.109375 168.925781 Z M 79.109375 138.515625 " fill-opacity="1" fill-rule="nonzero"/></g></g><g fill="#81689d" fill-opacity="1"><g transform="translate(59.768079, 221.444713)"><g><path d="M 59.875 -65.1875 L 35.390625 -30.828125 L 35.390625 0 L 24.484375 0 L 24.484375 -30.828125 L 0 -65.1875 L 13.3125 -65.1875 L 29.984375 -41.90625 L 46.5625 -65.1875 Z M 59.875 -65.1875 "/></g></g></g><g clip-path="url(#4882f9d73c)"><g clip-path="url(#4afa44a739)"><path fill="#81689d" d="M 148.277344 162.898438 L 129.644531 162.898438 L 129.644531 155.953125 L 148.277344 155.953125 Z M 148.277344 162.898438 " fill-opacity="1" fill-rule="nonzero"/></g></g><g clip-path="url(#0e7583775b)"><g clip-path="url(#e9ab90cb51)"><g clip-path="url(#7d256c2c0b)"><path fill="#81689d" d="M 130.164062 163.667969 L 117.511719 123.664062 L 124.132812 121.570312 L 136.785156 161.574219 Z M 130.164062 163.667969 " fill-opacity="1" fill-rule="nonzero"/></g></g></g><g clip-path="url(#d74f342617)"><g clip-path="url(#4462330629)"><path fill="#81689d" d="M 49.953125 162.125 L 31.320312 162.125 L 31.320312 155.183594 L 49.953125 155.183594 Z M 49.953125 162.125 " fill-opacity="1" fill-rule="nonzero"/></g></g><g clip-path="url(#97d33584d9)"><g clip-path="url(#c3a0e9f7b8)"><g clip-path="url(#8676932911)"><path fill="#81689d" d="M 62.441406 122.898438 L 49.757812 162.890625 L 43.140625 160.789062 L 55.824219 120.796875 Z M 62.441406 122.898438 " fill-opacity="1" fill-rule="nonzero"/></g></g></g><g clip-path="url(#afd0286a66)"><g clip-path="url(#3d72952a36)"><path fill="#81689d" d="M 124.863281 128.503906 L 54.730469 128.503906 L 54.730469 121.5625 L 124.863281 121.5625 Z M 124.863281 128.503906 " fill-opacity="1" fill-rule="nonzero"/></g></g><g clip-path="url(#ea4d6b5ea4)"><g clip-path="url(#eaacbd91a4)"><path fill="#81689d" d="M 148.277344 162.898438 L 129.644531 162.898438 L 129.644531 155.953125 L 148.277344 155.953125 Z M 148.277344 162.898438 " fill-opacity="1" fill-rule="nonzero"/></g></g><g clip-path="url(#127e2043cf)"><g clip-path="url(#8468d4cb8b)"><g clip-path="url(#96ffacca7a)"><path fill="#81689d" d="M 130.164062 163.667969 L 117.511719 123.664062 L 124.132812 121.570312 L 136.785156 161.574219 Z M 130.164062 163.667969 " fill-opacity="1" fill-rule="nonzero"/></g></g></g><g clip-path="url(#1fbb703041)"><g clip-path="url(#97e0bd1514)"><path fill="#81689d" d="M 49.953125 162.125 L 31.320312 162.125 L 31.320312 155.183594 L 49.953125 155.183594 Z M 49.953125 162.125 " fill-opacity="1" fill-rule="nonzero"/></g></g><g clip-path="url(#c414233b0f)"><g clip-path="url(#92efa21941)"><g clip-path="url(#e6bc56b687)"><path fill="#81689d" d="M 62.441406 122.898438 L 49.757812 162.890625 L 43.140625 160.789062 L 55.824219 120.796875 Z M 62.441406 122.898438 " fill-opacity="1" fill-rule="nonzero"/></g></g></g><g clip-path="url(#8a0dfd9760)"><g clip-path="url(#ea809be221)"><path fill="#81689d" d="M 124.863281 128.503906 L 54.730469 128.503906 L 54.730469 121.5625 L 124.863281 121.5625 Z M 124.863281 128.503906 " fill-opacity="1" fill-rule="nonzero"/></g></g><g clip-path="url(#c4e1f90be2)"><path fill="#ffd0ec" d="M 45.292969 171.761719 L 68.253906 171.761719 L 68.253906 215.617188 L 45.292969 215.617188 Z M 45.292969 171.761719 " fill-opacity="1" fill-rule="nonzero"/></g><g clip-path="url(#e72fd9e7cb)"><g clip-path="url(#0f3a4e8f29)"><path fill="#ffd0ec" d="M 31.621094 171.761719 L 59.007812 171.761719 L 59.007812 215.617188 L 31.621094 215.617188 Z M 31.621094 171.761719 " fill-opacity="1" fill-rule="nonzero"/></g></g><g clip-path="url(#0dff11fc89)"><g clip-path="url(#2ba556bdf9)"><path fill="#ffd0ec" d="M 54.019531 171.761719 L 82.503906 171.761719 L 82.503906 191.628906 L 54.019531 191.628906 Z M 54.019531 171.761719 " fill-opacity="1" fill-rule="nonzero"/></g></g><g clip-path="url(#ce3d67446e)"><path fill="#ffd0ec" d="M 59.878906 191.628906 L 82.453125 191.628906 L 82.453125 215.617188 L 59.878906 215.617188 Z M 59.878906 191.628906 " fill-opacity="1" fill-rule="nonzero"/></g><g clip-path="url(#b9c08115ce)"><g clip-path="url(#7e6ed09f36)"><path fill="#ffd0ec" d="M 38.585938 188.78125 L 82.460938 188.78125 L 82.460938 195.570312 L 38.585938 195.570312 Z M 38.585938 188.78125 " fill-opacity="1" fill-rule="nonzero"/></g></g><g clip-path="url(#40858d045a)"><g clip-path="url(#fe53739975)"><path fill="#ffd0ec" d="M 120.933594 171.761719 L 148.460938 171.761719 L 148.460938 215.53125 L 120.933594 215.53125 Z M 120.933594 171.761719 " fill-opacity="1" fill-rule="nonzero"/></g></g><g clip-path="url(#9461bd5aa3)"><path fill="#ffd0ec" d="M 96.914062 191.875 L 134.699219 191.875 L 134.699219 215.582031 L 96.914062 215.582031 Z M 96.914062 191.875 " fill-opacity="1" fill-rule="nonzero"/></g><g clip-path="url(#eb4cbc3eba)"><g clip-path="url(#c7d70ed043)"><path fill="#ffd0ec" d="M 96.914062 171.761719 L 125.515625 171.761719 L 125.515625 191.875 L 96.914062 191.875 Z M 96.914062 171.761719 " fill-opacity="1" fill-rule="nonzero"/></g></g><g clip-path="url(#4c06360d25)"><path fill="#ffd0ec" d="M 111.199219 171.761719 L 129.351562 171.761719 L 129.351562 195.449219 L 111.199219 195.449219 Z M 111.199219 171.761719 " fill-opacity="1" fill-rule="nonzero"/></g><g clip-path="url(#47c3870559)"><g clip-path="url(#0ccc45668c)"><path fill="#ffd0ec" d="M 96.914062 191.019531 L 116.496094 191.019531 L 116.496094 192.730469 L 96.914062 192.730469 Z M 96.914062 191.019531 " fill-opacity="1" fill-rule="nonzero"/></g></g><g clip-path="url(#bda257738b)"><g clip-path="url(#4845a06c2b)"><path fill="#ffd0ec" d="M 93.574219 177.515625 L 85.894531 177.515625 L 85.894531 171.75 L 93.574219 171.75 Z M 93.574219 177.515625 " fill-opacity="1" fill-rule="nonzero"/></g></g></svg>