<?xml version="1.0" encoding="UTF-8" ?>
<!DOCTYPE svg PUBLIC "-//W3C//DTD SVG 1.1//EN" "http://www.w3.org/Graphics/SVG/1.1/DTD/svg11.dtd">
<svg width="347.25pt" height="162pt" viewBox="0 0 2812 1310" version="1.1" xmlns="http://www.w3.org/2000/svg">
<g id="#1b3664ff">
<path fill="#1b3664" opacity="1.00" d=" M 306.15 44.09 C 361.43 18.67 422.49 8.41 482.91 5.86 C 517.57 4.37 552.35 5.22 586.88 8.55 C 625.12 12.53 663.20 19.71 699.57 32.39 C 732.83 43.86 764.65 59.95 792.73 81.24 C 822.40 103.78 848.32 131.44 867.88 163.20 C 894.84 206.56 908.91 257.05 912.51 307.75 C 843.55 310.73 774.59 313.67 705.63 316.60 C 703.06 293.24 697.04 269.98 685.81 249.21 C 672.06 223.42 649.95 202.17 623.48 189.71 C 591.31 174.45 555.26 169.66 519.98 169.16 C 492.86 168.87 465.55 170.16 438.99 176.00 C 422.41 179.80 405.93 185.27 391.61 194.64 C 372.10 207.65 356.13 227.00 350.18 249.97 C 345.26 269.66 346.00 291.20 354.17 309.94 C 360.87 325.64 372.80 338.56 386.43 348.58 C 402.54 360.41 420.28 369.75 438.01 378.87 C 475.49 397.63 514.13 413.94 552.89 429.84 C 590.24 445.37 627.33 461.61 663.66 479.42 C 684.61 489.77 705.32 500.65 725.33 512.74 C 739.56 521.50 753.58 530.76 766.13 541.85 C 787.47 560.98 805.57 583.89 818.31 609.61 C 832.07 637.06 839.44 667.40 841.65 697.95 C 845.35 748.80 835.89 800.93 812.38 846.34 C 795.58 879.13 772.16 908.26 745.15 933.19 C 721.67 955.22 695.03 973.83 666.35 988.42 C 624.07 1010.03 577.88 1023.18 531.08 1030.46 C 471.91 1039.42 411.62 1040.20 352.10 1034.54 C 294.26 1028.78 236.72 1015.53 183.81 991.05 C 154.03 977.28 125.70 959.85 101.44 937.64 C 78.08 916.50 59.03 890.65 45.81 862.05 C 21.15 810.53 12.02 752.67 13.61 695.89 C 67.75 693.12 121.90 690.54 176.04 687.71 C 190.48 687.37 204.86 685.92 219.30 685.69 C 219.77 702.03 221.42 718.31 223.69 734.49 C 227.11 755.91 231.90 777.54 242.13 796.86 C 249.01 809.97 259.70 820.68 271.60 829.31 C 288.39 841.48 307.91 849.37 327.84 854.76 C 369.25 865.77 412.48 866.79 455.06 865.40 C 487.12 863.46 519.60 859.43 549.60 847.36 C 574.85 837.37 597.16 819.73 612.21 797.09 C 631.97 767.30 634.32 725.72 614.83 695.21 C 604.70 679.30 590.10 666.62 573.95 657.09 C 556.91 646.94 539.00 638.36 521.06 629.95 C 484.46 612.90 447.01 597.81 409.81 582.14 C 372.38 566.21 335.17 549.68 298.92 531.18 C 281.58 522.17 264.29 512.94 248.08 501.99 C 219.54 482.68 194.86 457.61 176.49 428.42 C 159.81 402.36 149.15 372.62 144.47 342.08 C 140.86 320.57 140.75 298.68 141.65 276.95 C 143.42 251.69 148.08 226.55 156.67 202.70 C 169.69 165.68 191.84 132.18 219.55 104.52 C 244.38 79.27 273.94 58.79 306.15 44.09 Z" />
<path fill="#1b3664" opacity="1.00" d=" M 1840.36 761.93 C 1894.44 515.13 1948.76 268.38 2002.78 21.56 C 2150.21 21.59 2297.63 21.57 2445.06 21.57 C 2501.86 21.22 2559.10 22.33 2614.96 33.69 C 2639.50 38.78 2663.88 45.93 2686.07 57.81 C 2715.25 73.18 2740.22 95.99 2759.29 122.81 C 2783.63 156.26 2798.05 196.28 2803.37 237.15 C 2804.97 249.68 2806.28 262.32 2806.00 274.98 C 2805.83 288.30 2806.55 301.66 2805.08 314.93 C 2801.80 356.77 2790.47 398.25 2770.00 435.01 C 2752.55 466.41 2728.93 494.38 2700.90 516.84 C 2669.59 541.79 2633.17 559.72 2595.31 572.33 C 2558.96 584.57 2521.14 591.83 2483.17 596.75 C 2516.71 625.40 2543.67 661.00 2566.49 698.56 C 2608.72 769.02 2644.34 843.20 2677.94 918.08 C 2693.36 952.38 2707.91 987.05 2722.57 1021.67 C 2645.16 1021.73 2567.75 1021.72 2490.35 1021.67 C 2477.05 981.53 2461.07 942.33 2444.84 903.29 C 2425.35 856.85 2404.94 810.79 2384.15 764.92 C 2374.43 743.22 2363.80 721.90 2351.47 701.56 C 2338.75 680.65 2324.26 660.58 2306.48 643.65 C 2296.59 634.53 2285.98 625.75 2273.32 620.80 C 2254.00 613.05 2233.10 610.29 2212.47 608.80 C 2194.34 607.22 2176.14 607.67 2157.97 607.61 C 2135.60 607.61 2113.23 607.61 2090.86 607.61 C 2060.50 745.63 2030.15 883.64 1999.99 1021.70 C 1927.73 1021.66 1855.47 1021.79 1783.21 1021.63 C 1802.49 935.12 1821.23 848.48 1840.36 761.93 M 2182.56 189.46 C 2163.23 278.39 2143.55 367.25 2124.12 456.16 C 2176.41 455.99 2228.71 456.52 2281.01 455.75 C 2319.06 455.02 2357.13 453.80 2395.02 450.04 C 2424.88 446.86 2455.29 443.19 2483.13 431.23 C 2509.44 420.41 2533.71 404.06 2552.34 382.44 C 2570.76 360.95 2584.89 335.03 2589.22 306.82 C 2593.07 282.39 2590.28 255.77 2576.18 234.88 C 2568.65 223.54 2558.25 214.34 2546.71 207.23 C 2537.86 201.68 2527.63 198.95 2517.54 196.72 C 2488.78 190.93 2459.32 190.08 2430.08 189.48 C 2347.57 189.40 2265.07 189.45 2182.56 189.46 Z" />
<path fill="#1b3664" opacity="1.00" d=" M 1371.00 130.00 C 1397.34 127.86 1423.94 128.54 1450.10 132.33 C 1490.49 138.12 1530.38 153.51 1560.98 181.08 C 1583.54 200.80 1602.12 225.93 1610.73 254.89 C 1617.92 279.02 1618.41 305.08 1612.33 329.49 C 1606.72 352.12 1596.46 373.32 1584.15 393.02 C 1574.80 407.74 1564.56 421.95 1552.88 434.92 C 1528.46 461.93 1499.16 484.10 1468.35 503.31 C 1446.95 516.65 1424.61 528.40 1401.99 539.50 C 1423.89 574.10 1446.74 608.08 1470.38 641.52 C 1493.67 673.71 1515.60 707.17 1542.96 736.15 C 1572.64 707.09 1596.51 672.84 1619.78 638.63 C 1663.13 663.45 1706.58 688.08 1749.95 712.86 C 1731.15 746.13 1709.32 777.65 1685.24 807.29 C 1673.73 821.31 1661.44 834.74 1647.87 846.78 C 1676.82 875.72 1707.75 902.62 1739.73 928.15 C 1701.85 966.58 1663.83 1004.87 1626.04 1043.37 C 1607.35 1033.21 1590.23 1020.49 1573.57 1007.33 C 1553.43 991.27 1533.83 974.44 1515.91 955.90 C 1483.45 980.37 1446.26 997.89 1407.97 1011.12 C 1366.85 1025.54 1323.54 1033.33 1280.06 1035.43 C 1252.03 1037.05 1223.87 1035.91 1195.97 1032.80 C 1154.68 1027.90 1113.66 1017.09 1076.94 997.22 C 1043.13 979.08 1013.57 953.20 990.69 922.44 C 967.44 891.21 952.82 853.68 948.75 814.97 C 943.33 766.86 951.77 717.11 973.83 673.93 C 998.57 625.73 1035.46 583.85 1080.08 553.13 C 1113.23 530.50 1148.78 511.68 1184.41 493.30 C 1175.46 475.33 1167.70 456.77 1161.00 437.85 C 1151.28 409.88 1144.29 380.69 1143.45 350.99 C 1142.99 326.15 1146.40 301.12 1154.70 277.65 C 1166.17 244.60 1187.34 215.43 1213.43 192.34 C 1239.52 168.82 1271.18 151.83 1304.79 141.86 C 1326.33 135.46 1348.60 131.62 1371.00 130.00 M 1352.05 251.96 C 1334.46 262.19 1320.48 278.81 1314.29 298.29 C 1307.59 319.15 1308.65 341.79 1313.81 362.86 C 1318.86 383.54 1327.13 403.31 1336.68 422.29 C 1370.46 405.55 1404.12 386.98 1431.34 360.48 C 1444.67 347.21 1456.02 331.14 1460.52 312.64 C 1464.51 296.02 1462.53 277.13 1451.66 263.43 C 1441.67 250.04 1425.37 242.63 1409.01 241.09 C 1389.55 239.05 1369.10 241.94 1352.05 251.96 M 1192.88 647.82 C 1169.48 665.44 1148.70 687.62 1136.76 714.67 C 1125.97 738.71 1122.85 765.92 1126.80 791.90 C 1129.34 809.99 1136.15 827.49 1146.70 842.42 C 1156.05 855.52 1167.93 866.86 1181.63 875.33 C 1195.46 884.02 1211.08 889.67 1227.11 892.64 C 1251.46 897.33 1276.58 896.41 1300.93 892.22 C 1341.86 885.27 1380.28 867.84 1415.38 846.08 C 1353.03 774.24 1297.46 696.49 1249.90 614.11 C 1229.87 623.46 1210.61 634.59 1192.88 647.82 Z" />
<path fill="#1b3664" opacity="1.00" d=" M 1653.93 1079.47 C 1672.95 1075.90 1693.24 1077.11 1711.19 1084.63 C 1724.55 1090.12 1735.40 1101.52 1739.61 1115.42 C 1741.07 1119.87 1741.54 1124.57 1742.15 1129.20 C 1734.43 1129.93 1726.71 1130.55 1718.97 1130.91 C 1717.93 1123.08 1715.27 1115.18 1709.67 1109.41 C 1702.39 1101.60 1691.36 1098.75 1681.03 1098.24 C 1671.01 1097.84 1660.70 1097.84 1651.11 1101.15 C 1644.02 1103.57 1637.59 1108.59 1634.40 1115.46 C 1631.20 1122.41 1632.21 1131.12 1637.24 1136.94 C 1641.58 1142.10 1648.32 1144.10 1654.47 1146.22 C 1674.12 1152.26 1694.74 1154.74 1714.08 1161.88 C 1723.48 1165.57 1732.49 1171.06 1738.83 1179.05 C 1749.54 1192.64 1750.13 1212.65 1741.41 1227.39 C 1734.13 1240.72 1720.41 1249.28 1706.11 1253.35 C 1690.87 1257.75 1674.66 1257.61 1659.07 1255.37 C 1642.98 1253.18 1626.74 1246.68 1616.03 1234.05 C 1607.36 1224.24 1602.95 1211.33 1602.29 1198.38 C 1609.90 1197.91 1617.46 1196.93 1625.07 1196.38 C 1626.52 1206.51 1630.01 1217.11 1638.22 1223.79 C 1650.63 1233.90 1667.28 1237.10 1682.94 1236.44 C 1693.81 1235.92 1705.10 1233.56 1713.98 1226.92 C 1721.55 1221.30 1726.01 1211.20 1723.70 1201.88 C 1722.58 1196.39 1719.10 1191.57 1714.54 1188.41 C 1707.00 1183.09 1697.90 1180.81 1689.11 1178.54 C 1677.08 1175.43 1664.87 1173.05 1652.92 1169.65 C 1644.24 1167.09 1635.49 1164.20 1627.99 1159.01 C 1619.86 1153.63 1613.29 1145.57 1610.83 1136.04 C 1606.38 1120.50 1612.52 1103.04 1624.63 1092.64 C 1632.87 1085.52 1643.41 1081.70 1653.93 1079.47 Z" />
<path fill="#1b3664" opacity="1.00" d=" M 139.37 1080.78 C 151.41 1080.74 163.45 1080.82 175.48 1080.74 C 190.16 1122.04 204.57 1163.44 219.15 1204.78 C 221.94 1212.85 224.70 1220.93 227.36 1229.05 C 244.68 1179.47 262.97 1130.23 280.67 1080.78 C 291.50 1080.77 302.33 1080.77 313.16 1080.78 C 313.14 1138.50 313.16 1196.22 313.15 1253.95 C 305.39 1253.87 297.63 1254.22 289.88 1253.97 C 289.89 1223.34 289.88 1192.71 289.88 1162.08 C 290.00 1144.36 289.62 1126.63 290.11 1108.92 C 286.38 1117.47 283.68 1126.44 280.32 1135.14 C 265.88 1174.74 251.41 1214.33 236.99 1253.93 C 229.71 1253.92 222.44 1253.98 215.17 1253.90 C 200.04 1211.32 184.78 1168.79 169.61 1126.23 C 167.21 1119.89 165.23 1113.39 162.63 1107.14 C 162.48 1156.06 162.57 1204.99 162.59 1253.92 C 154.86 1253.95 147.12 1253.96 139.39 1253.91 C 139.44 1196.20 139.47 1138.49 139.37 1080.78 Z" />
<path fill="#1b3664" opacity="1.00" d=" M 1777.49 1080.77 C 1784.91 1080.77 1792.34 1080.76 1799.78 1080.78 C 1799.57 1101.58 1799.85 1122.38 1799.63 1143.18 C 1803.72 1138.74 1808.32 1134.68 1813.69 1131.84 C 1825.61 1125.34 1839.94 1124.12 1853.08 1127.02 C 1863.61 1129.21 1874.05 1134.96 1879.40 1144.63 C 1883.66 1152.67 1884.70 1162.01 1884.78 1170.99 C 1884.85 1198.63 1884.72 1226.27 1884.84 1253.91 C 1877.42 1253.97 1870.00 1253.93 1862.59 1253.93 C 1862.62 1229.30 1862.59 1204.67 1862.61 1180.04 C 1862.63 1171.80 1862.78 1163.00 1858.59 1155.60 C 1854.93 1148.95 1847.53 1145.07 1840.14 1144.36 C 1829.51 1142.93 1818.19 1145.87 1810.13 1153.08 C 1805.24 1157.41 1802.29 1163.58 1801.15 1169.95 C 1798.92 1181.17 1799.93 1192.65 1799.71 1204.00 C 1799.72 1220.65 1799.68 1237.30 1799.74 1253.95 C 1792.32 1254.05 1784.89 1254.17 1777.49 1253.91 C 1777.55 1196.20 1777.55 1138.49 1777.49 1080.77 Z" />
<path fill="#1b3664" opacity="1.00" d=" M 702.31 1080.78 C 709.83 1080.76 717.35 1080.76 724.87 1080.79 C 724.66 1101.33 724.92 1121.87 724.73 1142.41 C 732.34 1133.39 743.18 1127.06 755.02 1125.90 C 772.27 1124.10 791.08 1130.13 802.22 1143.86 C 814.47 1159.24 818.25 1179.85 816.36 1199.07 C 815.23 1215.07 809.22 1231.34 797.02 1242.21 C 782.48 1256.22 759.46 1261.04 740.78 1253.08 C 733.58 1250.08 727.96 1244.51 723.12 1238.56 C 723.15 1243.70 723.20 1248.84 723.18 1253.98 C 716.23 1254.09 709.28 1254.08 702.33 1253.94 C 702.39 1196.22 702.42 1138.50 702.31 1080.78 M 752.45 1143.69 C 745.68 1145.08 739.54 1148.80 734.84 1153.83 C 727.49 1161.26 724.17 1171.75 723.24 1181.95 C 722.71 1192.77 722.61 1203.84 725.59 1214.36 C 727.59 1221.64 732.21 1228.08 738.07 1232.77 C 746.27 1239.36 757.84 1240.95 767.76 1237.86 C 780.64 1233.64 789.74 1221.52 792.27 1208.47 C 794.80 1196.20 794.63 1183.39 791.81 1171.19 C 789.76 1162.56 784.98 1154.43 777.69 1149.22 C 770.59 1143.81 761.15 1141.96 752.45 1143.69 Z" />
<path fill="#1b3664" opacity="1.00" d=" M 1197.73 1080.78 C 1205.16 1080.77 1212.60 1080.76 1220.05 1080.78 C 1219.73 1101.56 1220.13 1122.34 1219.84 1143.11 C 1224.32 1138.36 1229.35 1134.03 1235.25 1131.13 C 1247.13 1125.13 1261.15 1124.21 1274.02 1127.17 C 1284.20 1129.49 1294.29 1135.06 1299.50 1144.44 C 1304.07 1152.80 1304.94 1162.59 1305.10 1171.96 C 1305.12 1199.29 1305.10 1226.61 1305.11 1253.94 C 1297.67 1253.94 1290.24 1253.94 1282.81 1253.94 C 1282.81 1227.28 1282.82 1200.62 1282.81 1173.97 C 1282.68 1166.24 1281.49 1157.87 1276.14 1151.90 C 1270.88 1145.99 1262.62 1143.91 1254.96 1144.04 C 1243.21 1143.93 1230.86 1149.50 1224.89 1159.93 C 1220.36 1168.15 1220.16 1177.85 1219.94 1187.00 C 1220.00 1209.30 1219.79 1231.60 1220.04 1253.90 C 1212.60 1253.98 1205.17 1253.92 1197.74 1253.94 C 1197.74 1196.22 1197.76 1138.50 1197.73 1080.78 Z" />
<path fill="#1b3664" opacity="1.00" d=" M 1339.10 1080.79 C 1346.60 1080.76 1354.11 1080.77 1361.62 1080.78 C 1361.52 1088.87 1361.61 1096.96 1361.57 1105.05 C 1354.08 1105.01 1346.60 1105.13 1339.12 1104.93 C 1339.18 1096.88 1339.23 1088.83 1339.10 1080.79 Z" />
<path fill="#1b3664" opacity="1.00" d=" M 2343.75 1080.78 C 2351.22 1080.77 2358.69 1080.77 2366.17 1080.78 C 2366.14 1088.87 2366.16 1096.96 2366.16 1105.06 C 2358.69 1105.00 2351.23 1105.03 2343.77 1105.06 C 2343.75 1096.96 2343.78 1088.87 2343.75 1080.78 Z" />
<path fill="#1b3664" opacity="1.00" d=" M 374.63 1131.70 C 388.03 1125.38 403.58 1124.06 418.01 1127.11 C 430.40 1129.56 441.75 1136.52 449.73 1146.28 C 461.13 1160.21 464.00 1178.97 463.35 1196.46 C 430.47 1196.50 397.59 1196.42 364.71 1196.51 C 365.44 1207.86 368.58 1219.77 376.82 1228.07 C 387.68 1239.60 405.96 1242.34 420.30 1236.28 C 429.76 1232.20 436.07 1223.13 439.34 1213.64 C 447.14 1214.32 454.89 1215.50 462.67 1216.38 C 458.75 1230.00 450.06 1242.54 437.41 1249.34 C 424.11 1256.66 408.30 1257.88 393.46 1256.20 C 380.20 1254.55 367.16 1249.00 357.94 1239.14 C 349.04 1230.01 344.12 1217.63 342.54 1205.12 C 340.92 1190.90 341.55 1176.10 346.56 1162.57 C 351.49 1149.18 361.77 1137.88 374.63 1131.70 M 375.79 1154.79 C 369.56 1161.29 366.67 1170.24 365.96 1179.06 C 390.59 1178.99 415.24 1179.20 439.87 1178.96 C 438.73 1170.26 436.79 1161.04 430.52 1154.48 C 416.73 1138.94 389.51 1139.37 375.79 1154.79 Z" />
<path fill="#1b3664" opacity="1.00" d=" M 534.11 1128.16 C 545.40 1124.51 557.94 1124.62 569.11 1128.69 C 577.75 1131.86 584.53 1138.96 587.93 1147.45 C 593.39 1139.75 600.62 1133.12 609.37 1129.39 C 619.28 1125.22 630.49 1124.51 640.95 1126.86 C 649.70 1128.56 658.10 1133.42 662.92 1141.06 C 667.81 1148.74 669.17 1158.05 669.38 1166.99 C 669.39 1195.97 669.36 1224.95 669.39 1253.94 C 661.94 1253.92 654.49 1253.97 647.04 1253.91 C 647.15 1227.59 647.08 1201.28 647.08 1174.96 C 646.76 1167.75 647.38 1159.94 643.47 1153.52 C 639.12 1146.79 630.79 1143.68 623.01 1144.04 C 613.20 1143.91 603.15 1148.26 597.44 1156.41 C 592.72 1163.26 591.27 1171.84 591.34 1180.02 C 591.35 1204.66 591.33 1229.30 591.35 1253.94 C 583.86 1253.94 576.36 1253.94 568.87 1253.94 C 568.86 1226.27 568.90 1198.61 568.85 1170.95 C 568.87 1163.46 567.55 1155.30 562.22 1149.66 C 557.31 1144.54 549.70 1143.72 542.98 1144.12 C 532.71 1144.66 522.47 1150.35 517.78 1159.70 C 513.10 1169.05 513.07 1179.78 512.93 1189.99 C 512.90 1211.34 512.92 1232.69 512.92 1254.05 C 505.45 1254.01 497.98 1254.07 490.51 1254.05 C 490.45 1212.22 490.60 1170.39 490.44 1128.56 C 497.14 1128.53 503.85 1128.53 510.56 1128.56 C 510.46 1134.37 510.51 1140.19 510.43 1146.02 C 516.24 1137.81 524.53 1131.34 534.11 1128.16 Z" />
<path fill="#1b3664" opacity="1.00" d=" M 856.00 1140.99 C 870.70 1127.13 892.57 1123.07 911.97 1126.92 C 928.54 1129.86 943.43 1140.93 950.97 1155.99 C 957.30 1168.43 958.69 1182.70 958.13 1196.47 C 925.33 1196.50 892.52 1196.42 859.72 1196.50 C 860.37 1207.89 863.57 1219.84 871.84 1228.13 C 883.08 1239.97 902.19 1242.56 916.69 1235.60 C 925.61 1231.27 930.98 1222.37 934.58 1213.50 C 942.26 1214.56 949.97 1215.41 957.67 1216.40 C 953.67 1229.99 945.03 1242.53 932.38 1249.33 C 918.39 1256.97 901.69 1258.11 886.17 1255.84 C 869.85 1253.57 854.37 1244.28 845.87 1230.00 C 836.79 1215.08 835.67 1196.87 837.33 1179.89 C 839.08 1165.37 844.93 1150.88 856.00 1140.99 M 871.26 1154.23 C 864.73 1160.78 861.56 1169.96 860.99 1179.07 C 885.63 1178.95 910.28 1179.27 934.92 1178.90 C 933.57 1170.03 931.61 1160.55 925.00 1153.97 C 911.24 1139.12 884.99 1139.54 871.26 1154.23 Z" />
<path fill="#1b3664" opacity="1.00" d=" M 1023.68 1127.76 C 1034.72 1122.97 1047.36 1126.70 1057.23 1132.55 C 1054.46 1138.99 1051.97 1145.54 1049.54 1152.10 C 1043.31 1148.77 1036.11 1146.54 1029.02 1147.84 C 1021.30 1149.01 1014.67 1154.78 1012.01 1162.06 C 1008.67 1171.30 1007.53 1181.23 1007.71 1191.03 C 1007.76 1211.99 1007.65 1232.95 1007.77 1253.91 C 1000.33 1254.15 992.88 1254.06 985.44 1253.93 C 985.48 1212.14 985.56 1170.35 985.40 1128.56 C 992.17 1128.53 998.93 1128.52 1005.70 1128.57 C 1005.55 1134.81 1005.60 1141.06 1005.60 1147.31 C 1010.32 1139.82 1015.15 1131.39 1023.68 1127.76 Z" />
<path fill="#1b3664" opacity="1.00" d=" M 1087.56 1130.46 C 1100.48 1125.29 1114.86 1124.43 1128.50 1126.75 C 1138.28 1128.34 1148.34 1131.58 1155.67 1138.53 C 1161.81 1144.35 1164.30 1152.73 1166.17 1160.72 C 1158.89 1161.90 1151.55 1162.63 1144.25 1163.68 C 1143.04 1156.85 1139.27 1150.27 1133.03 1146.93 C 1124.16 1142.19 1113.58 1142.59 1103.91 1143.94 C 1096.24 1144.96 1087.91 1149.75 1086.70 1158.04 C 1085.90 1165.10 1092.11 1170.63 1098.35 1172.54 C 1116.37 1178.11 1135.14 1181.34 1152.64 1188.53 C 1160.02 1191.89 1166.48 1197.92 1169.17 1205.70 C 1172.29 1215.06 1171.33 1225.76 1166.28 1234.29 C 1161.76 1242.23 1154.27 1248.17 1145.87 1251.60 C 1133.63 1256.83 1120.02 1257.56 1106.92 1256.39 C 1099.03 1255.47 1091.08 1253.84 1084.00 1250.11 C 1076.07 1246.00 1069.72 1239.09 1065.95 1231.03 C 1063.70 1226.45 1062.54 1221.46 1061.16 1216.59 C 1068.59 1215.54 1076.03 1214.45 1083.45 1213.29 C 1084.59 1221.75 1089.01 1230.11 1096.55 1234.50 C 1104.76 1239.38 1114.66 1239.72 1123.94 1239.12 C 1130.65 1238.45 1137.73 1236.59 1142.58 1231.61 C 1147.10 1227.24 1149.73 1220.08 1146.92 1214.10 C 1144.96 1209.47 1140.22 1206.98 1135.67 1205.54 C 1123.41 1201.57 1110.69 1199.24 1098.38 1195.48 C 1089.38 1192.74 1079.77 1189.90 1073.21 1182.74 C 1064.60 1173.67 1062.72 1159.27 1068.16 1148.11 C 1072.07 1140.05 1079.22 1133.66 1087.56 1130.46 Z" />
<path fill="#1b3664" opacity="1.00" d=" M 1438.90 1127.69 C 1457.71 1122.30 1479.77 1127.03 1493.35 1141.55 C 1504.45 1153.45 1509.31 1169.99 1510.02 1185.98 C 1510.83 1203.31 1507.12 1221.52 1496.50 1235.58 C 1484.88 1250.76 1464.81 1258.84 1445.90 1256.45 C 1434.98 1255.00 1424.92 1249.13 1417.76 1240.84 C 1418.30 1261.29 1417.62 1281.76 1418.05 1302.22 C 1410.59 1302.23 1403.13 1302.22 1395.67 1302.22 C 1395.70 1244.33 1395.73 1186.44 1395.66 1128.55 C 1402.43 1128.54 1409.22 1128.52 1416.01 1128.57 C 1415.83 1134.01 1416.01 1139.46 1415.79 1144.92 C 1421.71 1137.22 1429.41 1130.46 1438.90 1127.69 M 1446.53 1142.76 C 1438.69 1144.11 1431.94 1149.00 1426.88 1154.95 C 1421.44 1161.08 1418.50 1169.00 1417.08 1176.97 C 1415.12 1188.94 1415.28 1201.39 1418.46 1213.13 C 1421.22 1223.70 1428.92 1233.05 1439.14 1237.14 C 1444.78 1239.48 1451.08 1239.75 1457.08 1238.90 C 1466.55 1237.24 1474.84 1231.02 1479.93 1222.99 C 1483.86 1216.65 1485.82 1209.27 1486.62 1201.91 C 1487.90 1191.53 1487.60 1180.88 1485.15 1170.69 C 1482.86 1160.93 1476.92 1151.90 1468.26 1146.69 C 1461.85 1142.69 1453.92 1141.40 1446.53 1142.76 Z" />
<path fill="#1b3664" opacity="1.00" d=" M 1963.19 1126.16 C 1981.71 1123.76 2001.94 1128.18 2015.75 1141.32 C 2029.03 1153.21 2034.62 1171.58 2034.29 1189.01 C 2034.45 1204.95 2032.22 1222.17 2021.83 1234.95 C 2010.07 1249.77 1990.68 1257.10 1972.08 1256.84 C 1956.46 1256.98 1940.33 1252.00 1928.93 1241.00 C 1917.36 1230.33 1911.89 1214.50 1911.09 1199.08 C 1909.90 1182.16 1911.91 1164.03 1921.76 1149.74 C 1931.13 1136.17 1947.01 1128.01 1963.19 1126.16 M 1965.49 1143.64 C 1958.09 1144.92 1951.12 1148.50 1945.89 1153.90 C 1940.10 1159.51 1936.81 1167.19 1935.19 1174.99 C 1933.10 1186.05 1933.16 1197.53 1935.46 1208.57 C 1937.28 1216.79 1941.25 1224.72 1947.73 1230.25 C 1961.68 1242.96 1985.63 1242.42 1998.84 1228.86 C 2006.87 1221.10 2010.11 1209.80 2011.13 1198.98 C 2011.77 1188.30 2011.61 1177.24 2007.63 1167.16 C 2003.98 1157.42 1996.15 1149.27 1986.42 1145.54 C 1979.79 1142.95 1972.46 1142.56 1965.49 1143.64 Z" />
<path fill="#1b3664" opacity="1.00" d=" M 2103.78 1127.74 C 2120.41 1122.96 2139.51 1125.95 2153.20 1136.78 C 2165.45 1146.32 2171.75 1161.48 2174.19 1176.45 C 2176.34 1192.51 2175.11 1209.39 2168.29 1224.26 C 2163.42 1235.27 2154.87 1244.69 2144.10 1250.17 C 2130.48 1257.42 2113.44 1259.44 2099.12 1253.07 C 2092.83 1250.27 2087.33 1245.97 2082.81 1240.83 C 2083.34 1261.28 2082.82 1281.75 2083.09 1302.22 C 2075.63 1302.23 2068.18 1302.22 2060.74 1302.22 C 2060.76 1244.33 2060.78 1186.44 2060.72 1128.55 C 2067.48 1128.54 2074.25 1128.52 2081.03 1128.57 C 2080.84 1134.01 2081.01 1139.47 2080.81 1144.92 C 2086.75 1137.30 2094.34 1130.52 2103.78 1127.74 M 2111.54 1142.76 C 2097.21 1145.62 2086.56 1158.46 2083.15 1172.23 C 2079.90 1185.87 2079.93 1200.42 2083.74 1213.94 C 2087.65 1228.04 2100.95 1239.74 2115.98 1239.33 C 2129.03 1239.85 2141.16 1231.22 2146.79 1219.74 C 2151.49 1210.25 2152.37 1199.44 2152.37 1189.00 C 2152.18 1182.61 2151.81 1176.15 2150.02 1169.98 C 2147.54 1160.09 2141.21 1151.02 2132.21 1146.04 C 2125.99 1142.53 2118.52 1141.49 2111.54 1142.76 Z" />
<path fill="#1b3664" opacity="1.00" d=" M 2244.07 1128.10 C 2261.33 1122.67 2281.56 1125.87 2295.56 1137.60 C 2306.87 1146.85 2312.80 1161.02 2315.35 1175.09 C 2318.15 1192.41 2316.46 1210.83 2308.51 1226.64 C 2302.93 1238.10 2293.04 1247.29 2281.29 1252.19 C 2267.31 1258.29 2250.28 1258.95 2236.81 1251.18 C 2232.08 1248.60 2227.99 1245.04 2224.37 1241.10 C 2224.64 1261.47 2224.35 1281.85 2224.52 1302.22 C 2216.99 1302.23 2209.47 1302.23 2201.96 1302.22 C 2202.10 1244.34 2202.18 1186.44 2201.94 1128.56 C 2208.79 1128.52 2215.65 1128.53 2222.52 1128.56 C 2222.43 1133.91 2222.45 1139.28 2222.42 1144.64 C 2228.09 1137.44 2235.22 1131.01 2244.07 1128.10 M 2253.49 1142.67 C 2248.24 1143.47 2243.36 1145.91 2239.23 1149.18 C 2228.48 1157.36 2223.44 1170.92 2222.59 1184.04 C 2221.91 1196.03 2222.22 1208.54 2227.33 1219.64 C 2232.68 1231.29 2244.95 1239.93 2258.01 1239.33 C 2273.75 1239.60 2287.43 1226.91 2291.11 1212.08 C 2294.90 1197.20 2294.99 1181.11 2290.32 1166.42 C 2285.47 1151.33 2269.67 1139.50 2253.49 1142.67 Z" />
<path fill="#1b3664" opacity="1.00" d=" M 2434.05 1133.05 C 2446.89 1125.15 2463.05 1123.84 2477.50 1127.46 C 2486.69 1129.86 2495.96 1134.56 2501.01 1142.97 C 2506.47 1151.55 2507.50 1162.01 2507.41 1171.96 C 2507.45 1199.32 2507.42 1226.69 2507.43 1254.05 C 2499.98 1254.08 2492.55 1253.99 2485.12 1254.06 C 2485.07 1228.39 2485.14 1202.71 2485.09 1177.04 C 2484.78 1169.37 2484.95 1161.06 2480.49 1154.43 C 2475.54 1147.23 2466.53 1143.95 2458.06 1144.04 C 2448.49 1143.77 2438.70 1147.03 2431.76 1153.73 C 2428.29 1157.05 2426.21 1161.53 2424.86 1166.07 C 2421.73 1177.11 2422.58 1188.67 2422.48 1200.01 C 2422.48 1217.98 2422.46 1235.96 2422.49 1253.93 C 2415.07 1253.93 2407.66 1253.96 2400.26 1253.91 C 2400.28 1212.14 2400.42 1170.36 2400.18 1128.59 C 2406.88 1128.49 2413.59 1128.55 2420.30 1128.55 C 2420.24 1134.41 2420.30 1140.27 2420.17 1146.14 C 2424.30 1141.29 2428.52 1136.37 2434.05 1133.05 Z" />
<path fill="#1b3664" opacity="1.00" d=" M 2550.44 1141.48 C 2563.80 1127.29 2585.36 1122.55 2603.93 1127.38 C 2613.73 1129.87 2622.10 1136.12 2628.68 1143.65 C 2628.65 1138.61 2628.63 1133.58 2628.60 1128.55 C 2635.52 1128.53 2642.45 1128.53 2649.40 1128.55 C 2649.23 1167.02 2649.49 1205.49 2649.26 1243.96 C 2648.50 1256.21 2648.16 1269.15 2642.22 1280.21 C 2633.90 1294.95 2617.16 1302.72 2600.87 1304.51 C 2588.82 1305.52 2576.40 1305.36 2564.83 1301.49 C 2556.00 1298.59 2547.36 1293.55 2542.42 1285.44 C 2538.54 1279.20 2537.36 1271.74 2537.51 1264.51 C 2544.56 1265.82 2551.78 1266.04 2558.80 1267.57 C 2560.44 1272.13 2561.50 1277.29 2565.49 1280.53 C 2573.58 1287.31 2584.80 1287.97 2594.89 1287.36 C 2604.69 1286.96 2615.00 1283.07 2620.58 1274.59 C 2628.05 1263.79 2626.25 1249.93 2626.71 1237.52 C 2621.74 1242.78 2616.04 1247.51 2609.28 1250.27 C 2600.71 1254.05 2591.10 1254.44 2581.92 1253.51 C 2569.40 1252.37 2557.24 1246.49 2549.14 1236.78 C 2536.41 1222.15 2531.51 1201.94 2533.38 1182.90 C 2534.71 1167.86 2539.81 1152.54 2550.44 1141.48 M 2585.49 1143.60 C 2576.04 1145.35 2567.71 1151.48 2562.75 1159.63 C 2557.36 1168.39 2556.08 1178.91 2555.89 1189.00 C 2556.09 1197.76 2556.80 1206.73 2560.10 1214.95 C 2562.90 1222.15 2568.20 1228.32 2574.91 1232.16 C 2583.09 1236.88 2593.19 1237.57 2602.23 1235.19 C 2613.65 1231.97 2622.71 1222.27 2625.80 1210.89 C 2629.26 1198.29 2629.48 1184.79 2626.54 1172.08 C 2624.47 1163.27 2619.46 1155.09 2612.11 1149.73 C 2604.62 1144.01 2594.70 1141.96 2585.49 1143.60 Z" />
<path fill="#1b3664" opacity="1.00" d=" M 1339.09 1128.55 C 1346.61 1128.54 1354.13 1128.51 1361.66 1128.57 C 1361.48 1170.35 1361.58 1212.13 1361.62 1253.92 C 1354.12 1254.13 1346.61 1254.13 1339.12 1253.92 C 1339.19 1212.13 1339.25 1170.33 1339.09 1128.55 Z" />
<path fill="#1b3664" opacity="1.00" d=" M 2343.74 1128.55 C 2351.21 1128.53 2358.69 1128.54 2366.18 1128.55 C 2366.14 1170.36 2366.17 1212.16 2366.17 1253.98 C 2358.70 1254.13 2351.22 1254.03 2343.76 1253.99 C 2343.76 1212.18 2343.80 1170.36 2343.74 1128.55 Z" />
</g>
</svg>
