<?xml version="1.0" encoding="UTF-8" ?>
<!DOCTYPE svg PUBLIC "-//W3C//DTD SVG 1.1//EN" "http://www.w3.org/Graphics/SVG/1.1/DTD/svg11.dtd">
<svg width="626.25pt" height="90pt" viewBox="0 0 2048 294" version="1.1" xmlns="http://www.w3.org/2000/svg">
<path fill="#e40046" stroke="#e40046" stroke-width="0.09375" opacity="1.00" d=" M 1781.5 0.0 L 1792.3 0.0 C 1807.3 1.9 1821.8 7.9 1833.9 17.1 C 1843.1 24.1 1851.3 32.5 1858.3 41.7 C 1862.2 46.7 1865.7 52.3 1871.0 55.9 C 1873.7 57.8 1877.5 58.2 1880.3 56.3 C 1885.2 53.3 1888.4 48.3 1891.7 43.7 C 1902.2 28.7 1916.2 15.7 1933.0 8.0 C 1949.1 0.5 1967.8 -1.5 1985.0 3.0 C 2016.0 11.2 2041.5 38.3 2046.8 70.0 C 2047.3 73.2 2047.7 76.4 2048.0 79.6 L 2048.0 87.4 C 2047.2 96.7 2045.2 105.9 2041.5 114.4 C 2038.3 122.1 2033.4 128.9 2028.9 135.8 C 2000.8 178.4 1971.7 220.3 1940.9 260.9 C 1931.8 273.0 1919.4 282.8 1905.3 288.3 C 1888.0 295.1 1868.3 295.4 1850.7 289.4 C 1834.6 284.0 1820.4 273.4 1809.9 260.0 C 1803.7 252.1 1797.4 244.1 1791.4 236.0 C 1770.0 204.6 1749.3 172.7 1726.9 142.0 C 1717.8 129.4 1710.5 115.3 1707.1 100.0 C 1704.1 86.5 1704.4 72.3 1707.4 58.8 C 1714.9 42.9 1725.3 28.1 1739.1 17.1 C 1751.1 7.3 1766.0 1.0 1781.5 0.0 Z" />
<path fill="#0084ca" stroke="#0084ca" stroke-width="0.09375" opacity="1.00" d=" M 1601.2 3.2 C 1616.4 -1.1 1632.9 -0.2 1647.7 5.2 C 1663.4 11.0 1677.2 21.3 1688.2 33.8 C 1695.2 41.7 1700.7 50.7 1707.4 58.8 C 1704.4 72.3 1704.1 86.5 1707.1 100.0 C 1710.5 115.3 1717.8 129.4 1726.9 142.0 C 1749.3 172.7 1770.0 204.6 1791.4 236.0 C 1783.3 251.5 1772.7 266.0 1758.9 276.9 C 1747.1 286.4 1732.5 292.6 1717.4 294.0 L 1706.6 294.0 C 1686.1 292.1 1667.2 281.6 1652.8 267.2 C 1641.5 256.5 1633.2 243.3 1624.3 230.7 C 1602.7 200.0 1581.0 169.3 1559.7 138.4 C 1548.1 120.8 1540.3 100.2 1540.7 79.0 C 1540.8 61.4 1547.2 44.0 1558.6 30.6 C 1569.7 17.6 1584.7 7.8 1601.2 3.2 Z" />
<path fill="#0084ca" stroke="#0084ca" stroke-width="0.09375" opacity="1.00" d=" M 421.4 81.5 C 428.6 79.1 437.2 81.0 442.4 86.6 C 446.1 90.4 447.9 95.7 447.9 100.9 C 447.9 144.3 447.8 187.6 447.9 231.0 C 448.0 235.9 448.1 241.1 445.8 245.7 C 442.2 252.8 434.1 257.9 426.0 256.9 C 419.3 256.1 412.9 252.1 409.9 246.0 C 408.2 242.7 407.7 238.8 407.8 235.0 C 407.8 190.0 407.8 145.0 407.8 100.0 C 407.6 91.7 413.6 84.0 421.4 81.5 Z" />
<path fill="#0084ca" stroke="#0084ca" stroke-width="0.09375" opacity="1.00" d=" M 99.3 102.4 C 105.6 95.5 114.7 91.2 124.0 91.2 C 134.3 90.9 144.7 95.9 150.8 104.1 C 155.7 110.4 157.1 118.3 159.2 125.7 C 165.4 148.4 170.9 171.3 177.0 194.0 C 177.5 195.6 178.0 197.2 178.6 198.7 C 181.2 194.6 181.7 189.7 182.9 185.1 C 188.5 161.6 193.9 138.0 199.5 114.5 C 201.2 107.1 205.1 99.8 211.6 95.6 C 218.5 90.9 227.9 90.7 235.2 94.8 C 241.6 98.0 245.2 105.0 246.0 112.0 C 247.4 119.9 244.3 127.6 242.0 135.0 C 231.2 168.6 220.5 202.2 209.8 235.8 C 208.4 240.2 206.2 244.5 202.8 247.8 C 190.9 259.5 170.7 261.5 156.8 252.1 C 150.6 248.0 146.8 241.1 145.0 234.0 C 138.7 210.0 132.2 186.0 125.8 162.0 C 124.6 157.5 123.6 152.9 121.7 148.5 C 119.2 152.1 118.7 156.4 117.6 160.5 C 111.1 184.8 104.4 209.0 98.2 233.4 C 96.7 239.6 93.9 245.7 88.9 249.9 C 82.4 255.6 73.5 257.6 65.0 257.6 C 55.3 257.5 45.9 252.8 39.7 245.3 C 36.4 241.3 35.4 236.1 33.9 231.3 C 24.2 199.0 14.4 166.6 4.7 134.3 C 3.0 128.7 1.1 123.2 0.0 117.4 L 0.0 109.5 C 1.1 104.4 3.5 99.0 8.4 96.4 C 17.0 92.0 28.2 92.0 36.2 97.8 C 41.3 101.3 44.6 107.0 45.9 113.0 C 52.2 140.7 59.1 168.4 65.8 196.0 C 66.4 198.6 67.2 201.1 68.2 203.5 C 70.4 199.1 71.2 194.2 72.4 189.4 C 78.0 167.4 83.7 145.3 89.2 123.3 C 91.0 115.7 94.0 108.1 99.3 102.4 Z" />
<path fill="#0084ca" stroke="#0084ca" stroke-width="0.09375" opacity="1.00" d=" M 875.1 101.1 C 887.5 89.5 908.2 88.0 922.0 98.0 C 929.2 103.3 932.4 112.1 934.2 120.6 C 940.2 143.6 946.3 166.5 952.4 189.4 C 953.6 193.1 953.8 197.4 956.5 200.4 C 959.0 193.9 960.5 187.2 962.4 180.5 C 967.7 160.7 973.2 140.9 978.2 121.0 C 980.0 113.3 982.0 104.8 988.5 99.5 C 1000.9 89.4 1020.4 89.0 1033.0 99.0 C 1037.4 102.4 1040.6 107.3 1042.1 112.6 C 1053.3 150.1 1064.8 187.5 1076.1 225.0 C 1078.0 231.4 1078.7 238.6 1075.8 244.9 C 1072.8 251.8 1065.5 256.3 1058.0 256.3 C 1049.5 256.4 1040.4 252.7 1035.6 245.4 C 1033.0 241.8 1032.1 237.3 1031.1 233.1 C 1026.4 212.8 1021.5 192.6 1016.6 172.4 C 1014.4 163.8 1012.9 154.9 1009.8 146.5 C 1007.4 149.9 1006.8 154.1 1005.8 158.0 C 1000.5 178.9 995.1 199.7 989.8 220.6 C 987.8 228.7 985.9 237.0 980.8 243.8 C 974.0 253.1 962.4 258.8 950.9 257.9 C 937.4 257.4 925.1 247.4 921.4 234.5 C 913.5 206.7 907.2 178.5 899.3 150.8 C 898.4 151.8 897.3 152.7 897.2 154.2 C 891.5 178.5 885.7 202.8 880.0 227.1 C 878.2 234.5 876.9 242.6 871.6 248.6 C 866.0 255.6 856.2 259.2 847.5 256.6 C 840.0 254.7 834.2 248.2 832.3 240.8 C 830.3 233.9 831.7 226.6 833.9 220.0 C 845.3 184.3 856.7 148.6 868.0 112.9 C 869.4 108.5 871.7 104.3 875.1 101.1 Z" />
<path fill="#0084ca" stroke="#0084ca" stroke-width="0.09375" opacity="1.00" d=" M 505.4 101.6 C 512.4 99.6 520.6 100.8 526.1 105.8 C 531.4 110.6 533.8 118.1 532.9 125.0 C 532.9 127.4 532.1 130.2 533.8 132.2 C 535.8 134.6 539.3 133.8 542.0 133.9 C 548.6 133.3 555.9 134.3 560.9 139.1 C 568.6 146.6 567.0 161.2 557.6 166.6 C 550.9 170.8 542.7 168.4 535.3 169.4 C 533.3 169.8 533.1 172.2 533.1 173.9 C 533.2 187.3 533.1 200.7 533.2 214.1 C 533.1 216.5 533.4 219.9 536.3 220.6 C 543.2 222.2 550.3 220.6 557.1 219.4 C 561.5 218.6 566.4 219.0 570.2 221.8 C 574.4 224.7 576.4 230.0 575.8 235.0 C 575.0 242.7 570.0 249.6 563.4 253.4 C 551.5 260.0 537.1 262.3 523.8 259.0 C 515.7 257.0 507.5 253.5 501.9 247.1 C 495.0 239.5 492.3 229.1 492.3 219.1 C 492.2 203.7 492.4 188.3 492.3 172.9 C 492.4 171.0 491.0 169.0 488.9 169.1 C 483.1 169.1 476.8 169.8 471.7 166.3 C 464.7 162.0 462.6 152.6 465.2 145.1 C 467.0 139.8 471.7 135.6 477.2 134.4 C 480.9 133.4 484.8 133.9 488.6 133.5 C 489.9 133.4 490.6 132.0 490.5 130.8 C 490.8 125.7 490.1 120.4 491.6 115.4 C 493.5 108.9 498.8 103.4 505.4 101.6 Z" />
<path fill="#0084ca" stroke="#0084ca" stroke-width="0.09375" opacity="1.00" d=" M 1395.4 101.6 C 1402.5 99.6 1410.7 100.7 1416.4 105.6 C 1421.3 109.9 1423.5 116.6 1423.5 123.1 C 1423.7 126.0 1423.1 129.4 1425.0 132.0 C 1428.4 134.5 1433.0 133.4 1437.0 133.7 C 1443.8 133.5 1450.9 136.8 1454.1 142.9 C 1458.5 150.7 1456.1 161.7 1448.3 166.3 C 1441.7 170.6 1433.5 168.7 1426.1 169.3 C 1423.8 169.4 1423.3 172.1 1423.4 174.0 C 1423.6 187.3 1423.4 200.7 1423.5 214.0 C 1423.5 216.4 1423.7 219.6 1426.4 220.4 C 1432.7 222.1 1439.3 220.9 1445.6 219.8 C 1450.3 218.8 1455.5 218.6 1459.7 221.3 C 1464.1 223.8 1466.6 229.0 1466.2 234.0 C 1465.8 241.4 1461.5 248.3 1455.3 252.3 C 1442.2 260.3 1425.7 262.9 1410.9 258.1 C 1402.3 255.6 1393.9 250.7 1389.1 242.9 C 1384.0 235.3 1382.6 226.0 1382.7 217.0 C 1382.8 202.6 1382.7 188.3 1382.8 173.9 C 1382.9 172.0 1382.3 169.2 1379.9 169.2 C 1373.6 169.0 1366.6 169.9 1361.3 165.7 C 1352.0 159.3 1352.2 143.8 1361.3 137.3 C 1366.0 133.6 1372.3 133.7 1378.0 133.6 C 1379.5 133.9 1380.9 132.5 1380.8 130.9 C 1381.0 124.9 1380.5 118.6 1383.0 113.0 C 1385.2 107.6 1389.8 103.3 1395.4 101.6 Z" />
<path fill="#0084ca" stroke="#0084ca" stroke-width="0.09375" opacity="1.00" d=" M 628.7 133.8 C 642.3 130.4 657.2 130.2 670.4 135.6 C 682.9 140.7 693.2 150.4 700.4 161.6 C 706.9 172.0 707.8 185.6 702.8 196.7 C 701.3 200.0 698.7 202.9 695.3 204.3 C 690.8 206.2 685.8 205.6 681.0 205.7 C 662.8 205.8 644.7 205.6 626.5 205.8 C 627.8 211.7 631.1 217.5 636.5 220.5 C 643.1 224.3 651.1 224.3 658.4 223.3 C 666.1 222.3 673.1 218.1 681.0 218.2 C 685.4 218.1 690.3 219.2 693.3 222.7 C 696.6 226.5 697.1 231.9 696.6 236.8 C 695.1 249.1 684.3 259.5 671.9 260.6 C 654.5 262.6 636.0 262.6 619.6 255.4 C 604.1 248.4 591.9 234.8 586.2 218.8 C 580.0 201.8 581.1 182.4 589.2 166.3 C 597.0 150.5 611.6 138.1 628.7 133.8 M 632.5 169.5 C 629.3 172.0 627.9 175.8 627.1 179.6 C 639.4 179.7 651.8 179.6 664.1 179.6 C 662.5 173.8 659.1 167.8 652.9 166.2 C 646.1 164.5 638.1 165.0 632.5 169.5 Z" />
<path fill="#0084ca" stroke="#0084ca" stroke-width="0.09375" opacity="1.00" d=" M 294.4 132.6 C 308.5 130.3 323.0 134.4 334.7 142.3 C 337.7 144.5 340.2 140.9 342.4 139.4 C 351.4 131.5 366.6 134.2 373.4 143.6 C 376.2 147.4 377.2 152.3 377.2 157.0 C 377.5 176.3 377.0 195.7 377.3 215.0 C 377.3 222.0 377.4 229.0 377.1 236.0 C 376.7 243.9 372.1 251.6 364.9 254.9 C 357.4 258.3 347.6 257.3 341.7 251.3 C 340.2 250.1 338.4 247.6 336.2 248.9 C 332.9 250.6 330.1 253.1 326.7 254.7 C 314.0 261.6 298.3 262.0 284.8 257.4 C 270.4 252.6 259.2 241.0 252.2 227.8 C 239.0 203.2 243.3 170.7 262.2 150.2 C 270.5 140.9 282.0 134.5 294.4 132.6 M 307.4 169.5 C 296.1 172.2 288.6 183.7 288.8 195.0 C 288.8 204.5 294.2 214.2 303.1 218.1 C 311.6 221.8 322.1 220.2 329.1 214.1 C 332.2 211.7 334.8 208.3 334.7 204.2 C 334.3 197.8 334.4 191.4 334.6 185.0 C 334.7 181.7 333.1 178.5 330.8 176.2 C 324.8 170.3 315.7 167.2 307.4 169.5 Z" />
<path fill="#0084ca" stroke="#0084ca" stroke-width="0.09375" opacity="1.00" d=" M 737.1 137.1 C 743.4 131.5 753.1 130.4 760.4 134.6 C 764.9 137.0 767.8 141.3 770.3 145.5 C 776.7 140.0 783.8 134.9 792.2 133.3 C 799.2 131.9 807.1 131.7 813.3 135.7 C 820.3 140.3 824.0 149.8 820.8 157.7 C 818.0 164.9 810.4 169.0 803.1 170.0 C 797.3 170.9 791.7 168.5 786.0 168.6 C 781.5 168.7 777.1 170.0 773.4 172.5 C 770.7 174.3 771.2 178.1 771.0 181.0 C 771.1 197.6 771.0 214.3 771.1 231.0 C 771.0 235.1 771.0 239.4 769.4 243.4 C 767.3 249.1 762.4 253.6 756.8 255.6 C 746.7 259.0 734.4 253.0 731.2 242.8 C 729.9 239.0 730.1 234.9 730.1 231.0 C 730.2 205.0 730.1 179.0 730.2 153.0 C 730.0 147.0 732.5 141.0 737.1 137.1 Z" />
<path fill="#0084ca" stroke="#0084ca" stroke-width="0.09375" opacity="1.00" d=" M 1139.4 132.6 C 1152.5 130.4 1166.3 133.3 1177.4 140.6 C 1179.2 141.5 1180.8 143.0 1182.9 143.1 C 1185.8 141.7 1187.8 139.1 1190.6 137.5 C 1197.8 133.2 1207.4 134.3 1214.3 138.8 C 1220.1 142.7 1222.6 150.1 1222.6 156.9 C 1222.8 179.6 1222.6 202.3 1222.7 225.0 C 1222.6 232.9 1223.4 241.7 1218.3 248.4 C 1211.5 258.4 1195.3 259.9 1187.0 251.1 C 1185.5 249.6 1183.5 247.4 1181.3 249.1 C 1176.5 252.1 1171.9 255.5 1166.5 257.4 C 1150.6 263.3 1131.9 260.5 1117.8 251.2 C 1105.1 243.0 1097.2 229.2 1093.1 214.9 C 1088.2 198.9 1089.1 180.9 1097.0 166.0 C 1102.7 155.6 1110.4 145.8 1120.6 139.6 C 1126.4 136.1 1132.8 133.7 1139.4 132.6 M 1155.3 169.2 C 1149.3 169.9 1143.5 173.1 1139.9 178.0 C 1134.4 185.3 1133.3 195.4 1136.0 204.0 C 1138.2 211.1 1143.9 216.9 1151.0 219.0 C 1159.1 221.2 1168.6 219.8 1175.0 213.9 C 1184.3 205.3 1185.2 189.9 1178.7 179.3 C 1173.9 171.6 1164.1 168.1 1155.3 169.2 Z" />
<path fill="#0084ca" stroke="#0084ca" stroke-width="0.09375" opacity="1.00" d=" M 1263.6 134.6 C 1269.6 131.0 1277.4 131.1 1283.4 134.5 C 1287.9 136.8 1290.6 141.3 1293.4 145.4 C 1298.9 141.1 1304.4 136.4 1311.2 134.4 C 1319.3 131.8 1328.8 131.3 1336.3 135.7 C 1344.7 140.7 1348.0 153.0 1342.2 161.2 C 1336.6 168.7 1326.2 171.4 1317.2 169.5 C 1310.5 168.0 1303.0 168.2 1297.1 172.1 C 1294.5 173.8 1293.6 177.0 1293.7 180.0 C 1293.9 198.6 1293.8 217.3 1293.8 236.0 C 1293.8 243.1 1290.0 250.2 1283.7 253.7 C 1275.5 258.5 1263.9 256.6 1257.9 249.1 C 1255.0 245.8 1253.7 241.4 1253.5 237.1 C 1253.0 223.7 1253.5 210.4 1253.4 197.0 C 1253.3 182.0 1253.1 167.0 1253.5 152.0 C 1253.5 144.9 1257.4 138.0 1263.6 134.6 Z" />
</svg>
